<svg width="26" height="19" viewBox="0 0 26 19" fill="none" xmlns="http://www.w3.org/2000/svg">
<g clip-path="url(#clip0_2559_488)">
<path d="M23.9325 19H2.06751C0.926928 19 0 18.0709 0 16.9277V2.07231C0 0.929079 0.926928 0 2.06751 0H23.9325C25.0731 0 26 0.929079 26 2.07231V16.9277C26 18.0709 25.0731 19 23.9325 19ZM2.06751 0.830241C1.38382 0.830241 0.825032 1.38703 0.825032 2.0756V16.931C0.825032 17.6163 1.38053 18.1763 2.06751 18.1763H23.9325C24.6162 18.1763 25.175 17.6196 25.175 16.931V2.07231C25.175 1.38703 24.6195 0.826946 23.9325 0.826946H2.06751V0.830241Z" fill="#FCBF00"/>
<path d="M12.9766 11.8013C12.2666 11.8013 11.5567 11.4685 10.8237 10.803C9.46285 9.57084 0.765506 1.48588 0.676758 1.4068L1.23883 0.797302C1.32758 0.879667 10.0184 8.96134 11.3759 10.1869C12.523 11.2247 13.4171 11.228 14.5675 10.1968C15.6851 9.19196 24.3824 0.952149 24.4712 0.869784L25.0398 1.4727C24.6816 1.81204 16.2472 9.80146 15.1197 10.8129C14.39 11.4718 13.6833 11.8013 12.9766 11.8013Z" fill="#FCBF00"/>
<path d="M9.72321 9.53822L0.681641 17.5872L1.23169 18.2079L10.2733 10.159L9.72321 9.53822Z" fill="#FCBF00"/>
<path d="M16.2267 9.54506L15.6592 10.1498L24.4744 18.4616L25.042 17.8568L16.2267 9.54506Z" fill="#FCBF00"/>
</g>
<defs>
<clipPath id="clip0_2559_488">
<rect width="26" height="19" fill="white"/>
</clipPath>
</defs>
</svg>
