<svg width="21" height="19" viewBox="0 0 21 19" fill="none" xmlns="http://www.w3.org/2000/svg">
<path d="M17.6815 2.79152C15.8386 1.06943 13.2972 0 10.5012 0C7.70525 0 5.16174 1.06943 3.3188 2.79152C1.47797 4.51361 0.333496 6.88836 0.333496 9.50098C0.333496 12.1136 1.47797 14.4884 3.3188 16.2104C5.16174 17.9325 7.70525 19 10.5012 19C16.0931 19 20.6668 14.7262 20.6668 9.50098C20.6668 6.88836 19.5245 4.51361 17.6815 2.79152ZM13.598 5.5673H12.3189C11.3154 5.5673 11.1197 6.01355 11.1197 6.66818V8.10916H13.5139L13.2025 10.3679H11.1197V15.4123H8.62461V10.3679H6.53553V8.10916H8.62461V6.44408C8.62461 4.50967 9.8869 3.45794 11.734 3.45794C12.6176 3.45794 13.3771 3.51888 13.598 3.5464V5.5673Z" fill="#222222"/>
</svg>
