<svg width="30" height="30" viewBox="0 0 30 30" fill="none" xmlns="http://www.w3.org/2000/svg">
<path d="M10.3764 28.3249C4.91787 26.408 1 21.1914 1 15.0551C1 7.28928 7.27142 1 14.9997 1C22.7279 1 28.9994 7.28924 29 15.0551L10.3764 28.3249ZM10.3764 28.3249V20.6559H8.28343H7.28343V19.6559V15.0551V14.0551H8.28343H10.3764V13.0726C10.3764 10.382 10.9808 8.20131 12.4424 6.70314C13.909 5.19983 16.0527 4.5734 18.6992 4.5734C19.7087 4.5734 21.4443 4.7658 22.2283 4.98398L22.9602 5.18767V5.94737V10.1176V11.2286L21.8553 11.1121C21.5582 11.0808 20.9893 11.0616 20.2274 11.0616C19.0847 11.0616 18.5644 11.2867 18.3026 11.545C18.0442 11.7999 17.8177 12.305 17.8177 13.4279V14.0551M10.3764 28.3249L17.8177 14.0551M17.8177 14.0551H21.7172H22.9167L22.7008 15.2351L21.8591 19.8359L21.709 20.6559H20.8754H17.8177V28.8249C24.1966 27.5168 29 21.851 29 15.0552L17.8177 14.0551Z" fill="white" stroke="#F8F8F8" stroke-width="2"/>
</svg>
