<svg width="209" height="32" viewBox="0 0 209 32" fill="none" xmlns="http://www.w3.org/2000/svg">
<g clip-path="url(#clip0_2258_144)">
<path d="M50.3994 21.1043V4.99658H54.1938V20.7676C54.1938 21.1986 54.3293 21.3468 54.7236 21.3468H59.8854C60.2796 21.3468 60.4152 21.1986 60.4152 20.7676V4.99658H64.2096V21.1043C64.2096 23.8383 63.0269 25.1313 60.526 25.1313H54.1076C51.6067 25.1313 50.4241 23.8383 50.4241 21.1043" fill="white"/>
<path d="M68.1758 4.99658H72.118L79.0908 17.9663V4.99658H82.7744V25.1313H79.0908L71.8593 11.7037V25.1313H68.1758V4.99658Z" fill="white"/>
<path d="M90.7329 4.99658H86.9385V25.1313H90.7329V4.99658Z" fill="white"/>
<path d="M94.3307 21.1043V18.5723H98.0142V20.8215C98.0142 21.2525 98.1497 21.4006 98.5439 21.4006H103.435C103.829 21.4006 103.965 21.2525 103.965 20.8215V18.4107C103.965 17.7777 103.755 17.6026 103.065 17.4276L98.1744 16.2828C95.8583 15.7306 94.38 14.734 94.38 12.1346V9.02352C94.38 6.28951 95.5626 4.99658 98.0635 4.99658H103.743C106.244 4.99658 107.426 6.28951 107.426 9.02352V11.3265H103.743V9.31981C103.743 8.88884 103.607 8.74069 103.213 8.74069H98.6795C98.2852 8.74069 98.1497 8.88884 98.1497 9.31981V11.5016C98.1497 12.1346 98.3592 12.3097 99.049 12.4848L103.94 13.6296C106.256 14.1818 107.734 15.1784 107.734 17.7777V21.1178C107.734 23.8518 106.552 25.1447 104.051 25.1447H98.0019C95.501 25.1447 94.3184 23.8518 94.3184 21.1178" fill="white"/>
<path d="M115.101 18.2626L109.102 4.99658H113.216L117.023 13.9797L120.842 4.99658H124.895L118.896 18.2626V25.1313H115.101V18.2626Z" fill="white"/>
<path d="M126.213 21.1043V18.5723H129.896V20.8215C129.896 21.2525 130.032 21.4006 130.426 21.4006H135.317C135.711 21.4006 135.847 21.2525 135.847 20.8215V18.4107C135.847 17.7777 135.637 17.6026 134.947 17.4276L130.057 16.2828C127.741 15.7306 126.262 14.734 126.262 12.1346V9.02352C126.262 6.28951 127.445 4.99658 129.946 4.99658H135.637C138.138 4.99658 139.321 6.28951 139.321 9.02352V11.3265H135.637V9.31981C135.637 8.88884 135.502 8.74069 135.108 8.74069H130.586C130.192 8.74069 130.057 8.88884 130.057 9.31981V11.5016C130.057 12.1346 130.266 12.3097 130.956 12.4848L135.847 13.6296C138.163 14.1818 139.641 15.1784 139.641 17.7777V21.1178C139.641 23.8518 138.458 25.1447 135.958 25.1447H129.909C127.408 25.1447 126.225 23.8518 126.225 21.1178" fill="white"/>
<path d="M146.59 8.74069H141.588V4.99658H155.373V8.74069H150.372V25.1313H146.59V8.74069Z" fill="white"/>
<path d="M158.12 4.99658H170.514V8.79456H161.902V12.9696H168.887V16.7003H161.902V21.3333H170.514V25.1313H158.12V4.99658Z" fill="white"/>
<path d="M173.865 4.99658H178.017L182.908 16.8484L187.811 4.99658H191.963V25.1313H188.23V12.3097L184.251 22.4646H181.466L177.487 12.3097V25.1313H173.865V4.99658Z" fill="white"/>
<path d="M195.572 21.1043V18.5723H199.256V20.8215C199.256 21.2525 199.391 21.4006 199.786 21.4006H204.676C205.071 21.4006 205.206 21.2525 205.206 20.8215V18.4107C205.206 17.7777 204.997 17.6026 204.307 17.4276L199.416 16.2828C197.1 15.7306 195.622 14.734 195.622 12.1346V9.02352C195.622 6.28951 196.804 4.99658 199.305 4.99658H204.984C207.485 4.99658 208.668 6.28951 208.668 9.02352V11.3265H204.984V9.31981C204.984 8.88884 204.849 8.74069 204.455 8.74069H199.933C199.539 8.74069 199.404 8.88884 199.404 9.31981V11.5016C199.404 12.1346 199.613 12.3097 200.303 12.4848L205.194 13.6296C207.51 14.1818 208.988 15.1784 208.988 17.7777V21.1178C208.988 23.8518 207.806 25.1447 205.305 25.1447H199.256C196.755 25.1447 195.572 23.8518 195.572 21.1178" fill="white"/>
<path d="M16.619 0.565657L8.61132 15.7306L8.46348 16.0135L8.61132 16.2963L11.6419 22.0471C12.9478 24.9428 15.5965 26.734 18.5655 26.734C22.7294 26.734 26.1789 23.0707 26.2775 18.5589V17.9798H25.76H20.2286L19.1568 15.9461L22.6062 9.41414H29.5175L32.9669 15.9461L24.7375 31.4613H8.74683L0.591335 16L8.74683 0.565657H16.619ZM17.506 0H8.45116L0 16L8.45116 32H25.0332L33.5583 15.9327L29.8131 8.83502H22.3106L18.5655 15.9327L19.9329 18.532H25.76C25.6738 22.7609 22.4831 26.1549 18.5655 26.1549C15.7197 26.1549 13.2681 24.3636 12.0977 21.7643L9.05482 16L17.506 0Z" fill="white"/>
<path d="M34.3965 0H17.4941L9.04297 16L12.0859 21.7643C13.2562 24.3636 15.7078 26.1549 18.5536 26.1549C22.4712 26.1549 25.6619 22.7609 25.7482 18.532H19.9211L18.5536 15.9327L22.2987 8.83502H29.8013L33.5464 15.9327L25.0213 32.0135H34.3841L42.8353 16.0135L34.3965 0Z" fill="white"/>
</g>
<defs>
<clipPath id="clip0_2258_144">
<rect width="209" height="32" fill="white"/>
</clipPath>
</defs>
</svg>
