<svg width="1500" height="669" viewBox="0 0 1500 669" fill="none" xmlns="http://www.w3.org/2000/svg">
<g clip-path="url(#clip0_269_899)">
<g opacity="0.23">
<path d="M-34 25.0001H1490" stroke="#9DAFBD"/>
<path d="M-34 95.0001H1490" stroke="#9DAFBD"/>
<path d="M-34 165H1490" stroke="#9DAFBD"/>
<path d="M-34 235H1490" stroke="#9DAFBD"/>
<path d="M-34 305H1490" stroke="#9DAFBD"/>
<path d="M-34 375H1490" stroke="#9DAFBD"/>
<path d="M-34 445H1490" stroke="#9DAFBD"/>
<path d="M-34 515H1490" stroke="#9DAFBD"/>
<path d="M-34 585H1490" stroke="#9DAFBD"/>
<path d="M-34 655H1490" stroke="#9DAFBD"/>
</g>
<g opacity="0.23">
<path d="M24 1287L23.9999 -237" stroke="#9DAFBD"/>
<path d="M94 1287L93.9999 -237" stroke="#9DAFBD"/>
<path d="M164 1287L164 -237" stroke="#9DAFBD"/>
<path d="M234 1287L234 -237" stroke="#9DAFBD"/>
<path d="M304 1287L304 -237" stroke="#9DAFBD"/>
<path d="M374 1287L374 -237" stroke="#9DAFBD"/>
<path d="M444 1287L444 -237" stroke="#9DAFBD"/>
<path d="M514 1287L514 -237" stroke="#9DAFBD"/>
<path d="M584 1287L584 -237" stroke="#9DAFBD"/>
<path d="M654 1287L654 -237" stroke="#9DAFBD"/>
<path d="M724 1287L724 -237" stroke="#9DAFBD"/>
<path d="M794 1287L794 -237" stroke="#9DAFBD"/>
<path d="M864 1287L864 -237" stroke="#9DAFBD"/>
<path d="M934 1287L934 -237" stroke="#9DAFBD"/>
<path d="M1004 1287L1004 -237" stroke="#9DAFBD"/>
<path d="M1074 1287L1074 -237" stroke="#9DAFBD"/>
<path d="M1144 1287L1144 -237" stroke="#9DAFBD"/>
<path d="M1214 1287L1214 -237" stroke="#9DAFBD"/>
<path d="M1284 1287L1284 -237" stroke="#9DAFBD"/>
<path d="M1354 1287L1354 -237" stroke="#9DAFBD"/>
<path d="M1424 1287L1424 -237" stroke="#9DAFBD"/>
<path d="M1494 1287L1494 -237" stroke="#9DAFBD"/>
</g>
</g>
<defs>
<clipPath id="clip0_269_899">
<rect width="1500" height="669" fill="white"/>
</clipPath>
</defs>
</svg>
