<svg width="1500" height="669" viewBox="0 0 1500 669" fill="none" xmlns="http://www.w3.org/2000/svg">
<g clip-path="url(#clip0_269_787)">
<path d="M0 60.0001H1524" stroke="#F08E43"/>
<path d="M0 130H1524" stroke="#F08E43"/>
<path d="M0 200H1524" stroke="#F08E43"/>
<path d="M0 270H1524" stroke="#F08E43"/>
<path d="M0 340H1524" stroke="#F08E43"/>
<path d="M0 410H1524" stroke="#F08E43"/>
<path d="M0 480H1524" stroke="#F08E43"/>
<path d="M0 550H1524" stroke="#F08E43"/>
<path d="M0 620H1524" stroke="#F08E43"/>
<path d="M58 1252L57.9999 -272" stroke="#F08E43"/>
<path d="M128 1252L128 -272" stroke="#F08E43"/>
<path d="M198 1252L198 -272" stroke="#F08E43"/>
<path d="M268 1252L268 -272" stroke="#F08E43"/>
<path d="M338 1252L338 -272" stroke="#F08E43"/>
<path d="M408 1252L408 -272" stroke="#F08E43"/>
<path d="M478 1252L478 -272" stroke="#F08E43"/>
<path d="M548 1252L548 -272" stroke="#F08E43"/>
<path d="M618 1252L618 -272" stroke="#F08E43"/>
<path d="M688 1252L688 -272" stroke="#F08E43"/>
<path d="M758 1252L758 -272" stroke="#F08E43"/>
<path d="M828 1252L828 -272" stroke="#F08E43"/>
<path d="M898 1252L898 -272" stroke="#F08E43"/>
<path d="M968 1252L968 -272" stroke="#F08E43"/>
<path d="M1038 1252L1038 -272" stroke="#F08E43"/>
<path d="M1108 1252L1108 -272" stroke="#F08E43"/>
<path d="M1178 1252L1178 -272" stroke="#F08E43"/>
<path d="M1248 1252L1248 -272" stroke="#F08E43"/>
<path d="M1318 1252L1318 -272" stroke="#F08E43"/>
<path d="M1388 1252L1388 -272" stroke="#F08E43"/>
<path d="M1458 1252L1458 -272" stroke="#F08E43"/>
</g>
<defs>
<clipPath id="clip0_269_787">
<rect width="1500" height="669" fill="white"/>
</clipPath>
</defs>
</svg>
