<svg width="21" height="19" viewBox="0 0 21 19" fill="none" xmlns="http://www.w3.org/2000/svg">
<path d="M10.1664 7.29727C11.5118 7.29727 12.6024 8.31647 12.6024 9.57373C12.6024 10.831 11.5118 11.8502 10.1664 11.8502C8.82109 11.8502 7.73047 10.831 7.73047 9.57373C7.73047 8.31647 8.82109 7.29727 10.1664 7.29727Z" fill="#222222"/>
<path d="M13.1201 14.9091H7.21323C5.69443 14.9091 4.45752 13.7551 4.45752 12.3338V6.81366C4.45752 5.39431 5.69443 4.23839 7.21323 4.23839H13.1201C14.641 4.23839 15.8758 5.39431 15.8758 6.81366V12.3338C15.8758 13.7551 14.641 14.9091 13.1201 14.9091ZM10.1667 6.39493C8.29027 6.39493 6.76306 7.82018 6.76306 9.57372C6.76306 11.3273 8.29027 12.7545 10.1667 12.7545C12.0431 12.7545 13.5703 11.3273 13.5703 9.57372C13.5703 7.82018 12.0431 6.39493 10.1667 6.39493ZM13.829 12.3711C13.4504 12.3711 13.1433 12.6582 13.1433 13.012C13.1433 13.3659 13.4504 13.6509 13.829 13.6509C14.2077 13.6509 14.5127 13.3639 14.5127 13.012C14.5127 12.6601 14.2056 12.3711 13.829 12.3711Z" fill="#222222"/>
<path d="M17.3462 16.2085C15.5035 17.9306 12.9623 19 10.1667 19C7.37099 19 4.82985 17.9306 2.9871 16.2085C1.14435 14.4864 0 12.1116 0 9.49902C0 6.88639 1.14435 4.51164 2.9871 2.78955C4.82985 1.06746 7.37099 0 10.1667 0C15.758 0 20.3333 4.27377 20.3333 9.49902C20.3333 12.1116 19.189 14.4864 17.3462 16.2085ZM16.854 6.90998C16.854 4.95003 15.1501 3.35572 13.0528 3.35572H7.28054C5.18536 3.35572 3.47934 4.95003 3.47934 6.90998V12.3023C3.47934 14.2623 5.18536 15.8546 7.28054 15.8546H13.0528C15.1501 15.8546 16.854 14.2623 16.854 12.3023V6.90998Z" fill="#222222"/>
</svg>
