<svg width="206" height="29" viewBox="0 0 206 29" fill="none" xmlns="http://www.w3.org/2000/svg">
<path d="M49.6875 20.0642V5.46991H53.4176V19.7577C53.4176 20.1585 53.5584 20.2764 53.9337 20.2764H59.0245C59.4233 20.2764 59.5406 20.135 59.5406 19.7577V5.46991H63.2707V20.0642C63.2707 22.5398 62.0977 23.7187 59.6345 23.7187H53.3003C50.837 23.7187 49.6641 22.5398 49.6641 20.0642H49.6875Z" fill="#222222"/>
<path d="M67.1885 5.46991H71.0828L77.9565 17.235V5.46991H81.5928V23.7187H77.9565L70.8247 11.5293V23.7187H67.1885V5.46991Z" fill="#222222"/>
<path d="M85.6982 5.46991H89.4283V23.7187H85.6982V5.46991Z" fill="#222222"/>
<path d="M92.9707 20.0642V17.7772H96.607V19.8049C96.607 20.2057 96.7477 20.3236 97.1231 20.3236H101.956C102.355 20.3236 102.472 20.1821 102.472 19.8049V17.6122C102.472 17.0463 102.261 16.8813 101.58 16.7163L96.7477 15.6789C94.4721 15.1837 93.0176 14.2642 93.0176 11.9301V9.12438C93.0176 6.64877 94.1906 5.46991 96.6539 5.46991H102.261C104.724 5.46991 105.897 6.64877 105.897 9.12438V11.2228H102.261V9.40731C102.261 9.0065 102.12 8.88861 101.745 8.88861H97.2873C96.8885 8.88861 96.7712 9.03007 96.7712 9.40731V11.3878C96.7712 11.9536 96.9823 12.1187 97.6627 12.2837L102.495 13.3211C104.771 13.8163 106.225 14.7358 106.225 17.0699V20.0878C106.225 22.5634 105.052 23.7423 102.589 23.7423H96.6304C94.1671 23.7423 92.9942 22.5634 92.9942 20.0878L92.9707 20.0642Z" fill="#222222"/>
<path d="M113.451 17.4707L107.539 5.44635H111.598L115.351 13.5805L119.105 5.44635H123.093L117.181 17.4707V23.6951H113.451V17.4707Z" fill="#222222"/>
<path d="M124.407 20.0642V17.7772H128.043V19.8049C128.043 20.2057 128.184 20.3236 128.56 20.3236H133.392C133.791 20.3236 133.908 20.1821 133.908 19.8049V17.6122C133.908 17.0463 133.697 16.8813 133.017 16.7163L128.184 15.6789C125.909 15.1837 124.454 14.2642 124.454 11.9301V9.12438C124.454 6.64877 125.627 5.46991 128.09 5.46991H133.697C136.161 5.46991 137.334 6.64877 137.334 9.12438V11.2228H133.697V9.40731C133.697 9.0065 133.557 8.88861 133.181 8.88861H128.724C128.325 8.88861 128.208 9.03007 128.208 9.40731V11.3878C128.208 11.9536 128.419 12.1187 129.099 12.2837L133.932 13.3211C136.207 13.8163 137.662 14.7358 137.662 17.0699V20.0878C137.662 22.5634 136.489 23.7423 134.026 23.7423H128.067C125.604 23.7423 124.431 22.5634 124.431 20.0878L124.407 20.0642Z" fill="#222222"/>
<path d="M144.489 8.84147H139.562V5.44635H153.169V8.84147H148.243V23.7187H144.512V8.84147H144.489Z" fill="#222222"/>
<path d="M155.844 5.46994H168.066V8.91222H159.574V12.6846H166.448V16.0797H159.574V20.2764H168.066V23.7187H155.844V5.46994Z" fill="#222222"/>
<path d="M171.351 5.46994H175.456L180.289 16.2212L185.121 5.46994H189.227V23.7187H185.544V12.0951L181.626 21.3138H178.881L174.963 12.0951V23.7187H171.374V5.46994H171.351Z" fill="#222222"/>
<path d="M192.769 20.0643V17.7773H196.405V19.8049C196.405 20.2057 196.546 20.3236 196.921 20.3236H201.754C202.153 20.3236 202.27 20.1821 202.27 19.8049V17.6122C202.27 17.0464 202.059 16.8813 201.379 16.7163L196.546 15.6789C194.27 15.1838 192.816 14.2642 192.816 11.9301V9.12441C192.816 6.6488 193.989 5.46994 196.452 5.46994H202.059C204.522 5.46994 205.695 6.6488 205.695 9.12441V11.2228H202.059V9.40734C202.059 9.00653 201.918 8.88864 201.543 8.88864H197.086C196.687 8.88864 196.57 9.0301 196.57 9.40734V11.3878C196.57 11.9537 196.781 12.1187 197.461 12.2838L202.294 13.3212C204.569 13.8163 206.024 14.7358 206.024 17.0699V20.0878C206.024 22.5634 204.851 23.7423 202.388 23.7423H196.429C193.966 23.7423 192.793 22.5634 192.793 20.0878L192.769 20.0643Z" fill="#222222"/>
<path d="M29.3716 7.99268H21.9818L18.2986 14.4293L19.6593 16.787H25.4069C25.3131 20.6301 22.1695 23.6951 18.3221 23.6951C15.5069 23.6951 13.0905 22.0683 11.941 19.7106L8.93816 14.5L17.2429 0H8.32821L0 14.5L8.32821 29H24.6797L33.0782 14.4293L29.3951 7.99268H29.3716Z" fill="#222222"/>
<path d="M33.8997 0H17.2432L8.91504 14.5L11.9179 19.7106C13.0674 22.0683 15.4838 23.6951 18.2989 23.6951C22.1698 23.6951 25.3134 20.6065 25.3838 16.787H19.6361L18.2755 14.4293L21.9587 7.99268H29.3485L33.0317 14.4293L24.6331 29H33.8762L42.2044 14.5L33.8997 0Z" fill="#FCBF00"/>
</svg>
