<svg width="316" height="39" viewBox="0 0 316 39" fill="none" xmlns="http://www.w3.org/2000/svg">
<g clip-path="url(#clip0_2022_4280)">
<path d="M285.71 26.1026H261.882V17.4514C261.882 15.4875 262.334 14.0457 263.24 13.1259C264.146 12.2061 265.627 11.6094 267.683 11.336L276.863 10.0681C277.474 9.96872 277.889 9.80711 278.111 9.58337C278.356 9.35964 278.478 8.94947 278.478 8.35283V7.45788C278.478 6.81153 278.368 6.3765 278.146 6.15275C277.926 5.92901 277.499 5.81716 276.863 5.81716H271.356C270.742 5.81716 270.315 5.94145 270.07 6.19004C269.85 6.41377 269.738 6.83638 269.738 7.45788V8.53927H262.396V5.89172C262.396 3.85324 262.861 2.36167 263.792 1.417C264.745 0.472332 266.213 0 268.198 0H280.313C282.295 0 283.753 0.472332 284.682 1.417C285.638 2.36167 286.115 3.85324 286.115 5.89172V9.39693C286.115 11.3608 285.663 12.8027 284.757 13.7225C283.85 14.6175 282.37 15.2141 280.313 15.5124L271.134 16.7802C270.522 16.8548 270.095 17.0164 269.85 17.265C269.628 17.4887 269.518 17.8989 269.518 18.4956V19.7634H285.71V26.1026Z" fill="#F08E43"/>
<path d="M289.565 26.1026V0H306.821C309.806 0 312.083 0.795507 313.651 2.38653C315.216 3.95268 316 6.26462 316 9.32235V16.7802C316 19.838 315.216 22.1623 313.651 23.7533C312.083 25.3194 309.806 26.1026 306.821 26.1026H289.565ZM297.494 19.2786H305.133C307.09 19.2786 308.069 18.2843 308.069 16.2955V9.80711C308.069 7.81834 307.09 6.82397 305.133 6.82397H297.494V19.2786Z" fill="#F08E43"/>
<path fill-rule="evenodd" clip-rule="evenodd" d="M0.027832 31.1735H24.7403V38.9332H0.027832V31.1735Z" fill="#F08E43"/>
<path fill-rule="evenodd" clip-rule="evenodd" d="M12.2457 21.8687L3.22151 11.1459H8.35835V0H0.0283203V15.6608C0.444822 21.8687 7.10884 26.8067 12.3845 26.8067C17.6602 26.8067 24.1855 21.8687 24.7408 15.6608V0H16.4107V11.1459H21.4087L12.2457 21.8687ZM36.1008 12.1336L48.8735 26.1013H55.2598V0H47.624V13.9677L34.8513 0H28.465V26.1013H36.1008V12.1336ZM97.5284 17.2127V15.6608H89.8925V17.0716C89.8925 17.3538 89.7538 17.7771 89.6149 17.9182C89.3372 18.0593 89.0596 18.2003 88.782 18.2003H79.3412C79.0635 18.2003 78.647 18.0593 78.5082 17.9182C78.3693 17.636 78.2306 17.3538 78.2306 17.0716V8.88854C78.2306 8.60635 78.3693 8.18311 78.5082 8.04201C78.7859 7.90091 79.0635 7.75984 79.3412 7.75984H88.782C89.0596 7.75984 89.476 7.90091 89.6149 8.04201C89.7538 8.32418 89.8925 8.60635 89.8925 8.88854V10.8638H97.5284V8.88854C97.5284 6.34895 96.4178 4.09154 94.8905 2.53957C93.3633 0.987617 91.142 0 88.782 0H79.3412C76.9811 0 74.7596 0.987617 73.2324 2.53957C71.5664 4.23264 70.5946 6.49004 70.5946 8.88854V17.0716C70.5946 19.6112 71.7053 21.8687 73.2324 23.4207C74.7596 25.1137 76.9811 26.1013 79.3412 26.1013H88.782C91.142 26.1013 93.3633 24.9726 94.8905 23.4207C96.5565 21.8687 97.5284 19.6112 97.5284 17.2127ZM118.409 0H108.969C106.608 0 104.387 0.987617 102.721 2.53957C101.055 4.23264 100.083 6.49004 100.083 8.88854V17.0716C100.083 19.6112 101.194 21.8687 102.721 23.4207C104.387 25.1137 106.608 26.1013 108.969 26.1013H118.409C120.908 26.1013 123.13 24.9726 124.657 23.4207C126.184 21.7274 127.156 19.4701 127.156 17.0716V8.88854C127.156 6.34895 126.184 4.09154 124.657 2.53957C122.991 0.987617 120.769 0 118.409 0ZM108.969 7.75984H118.409C118.687 7.75984 118.965 7.90091 119.242 8.04201C119.381 8.32418 119.52 8.60635 119.52 8.88854V17.0716C119.52 17.3538 119.381 17.7771 119.242 17.9182C118.965 18.0593 118.687 18.2003 118.409 18.2003H108.969C108.691 18.2003 108.274 18.0593 108.136 17.9182C107.997 17.636 107.858 17.3538 107.858 17.0716V8.88854C107.858 8.60635 107.997 8.18311 108.136 8.04201C108.413 7.90091 108.691 7.75984 108.969 7.75984ZM226.264 0H235.704C238.064 0 240.287 0.987617 241.952 2.53957C243.48 4.09154 244.589 6.34895 244.589 8.88854V17.0716C244.589 19.4701 243.619 21.7274 241.952 23.4207C240.426 24.9726 238.203 26.1013 235.704 26.1013H226.264C223.904 26.1013 221.683 25.1137 220.016 23.4207C218.49 21.8687 217.518 19.6112 217.518 17.0716V8.88854C217.518 6.49004 218.49 4.23264 220.016 2.53957C221.683 0.987617 223.904 0 226.264 0ZM235.704 7.75984H226.264C225.986 7.75984 225.708 7.90091 225.43 8.04201C225.291 8.18311 225.152 8.60635 225.152 8.88854V17.0716C225.152 17.3538 225.291 17.636 225.43 17.9182C225.569 18.0593 225.986 18.2003 226.264 18.2003H235.704C235.982 18.2003 236.26 18.0593 236.538 17.9182C236.677 17.7771 236.816 17.3538 236.816 17.0716V8.88854C236.816 8.60635 236.677 8.32418 236.538 8.04201C236.26 7.90091 235.982 7.75984 235.704 7.75984ZM150.37 26.1013L137.598 12.1336V26.1013H130.101V0H136.348L149.121 13.9677V0H156.757V26.1013H150.37ZM59.5341 0H67.1702V25.9601H59.5341V0ZM168.478 7.33657H159.592V0H185.138V7.33657H176.113V26.1013H168.478V7.33657ZM187.5 0V25.8191H194.997V18.2003H200.967L206.381 25.8191H215.127L209.435 17.636C210.686 17.2127 211.797 16.5073 212.628 15.5197C214.018 13.9677 214.712 11.4281 214.712 9.17071C214.712 6.63114 213.879 3.95047 212.351 2.3985C210.825 0.846528 208.604 0 206.104 0H187.5ZM195.136 11.1459V7.33657H207.076V11.1459H195.136ZM269.471 26.1013H247.536V0H255.17V18.7647H269.471V26.1013Z" fill="white"/>
</g>
<defs>
<clipPath id="clip0_2022_4280">
<rect width="316" height="39" fill="white"/>
</clipPath>
</defs>
</svg>
