<svg width="286" height="54" viewBox="0 0 286 54" fill="none" xmlns="http://www.w3.org/2000/svg">
<g clip-path="url(#clip0_2022_4363)">
<path d="M115.785 0H125.787C128.348 0 130.666 1.02732 132.365 2.63415C134.009 4.29366 135.061 6.55902 135.061 9.06146V17.438C135.061 19.9405 134.036 22.2322 132.365 23.8654C130.666 25.4722 128.348 26.5259 125.787 26.5259H115.785C113.224 26.5259 110.879 25.4722 109.208 23.8654C107.509 22.2059 106.485 19.9405 106.485 17.438V9.06146C106.485 6.55902 107.536 4.26732 109.208 2.63415C110.879 1.02732 113.224 0 115.785 0ZM125.787 7.8761H115.785C115.435 7.8761 115.138 8.0078 114.923 8.21854C114.707 8.42927 114.572 8.71902 114.572 9.06146V17.438C114.572 17.7805 114.707 18.0702 114.923 18.281C115.138 18.4917 115.435 18.6234 115.785 18.6234H125.787C126.137 18.6234 126.434 18.4917 126.65 18.281C126.865 18.0702 127 17.7805 127 17.438V9.06146C127 8.71902 126.865 8.42927 126.65 8.21854C126.434 8.0078 126.137 7.8761 125.787 7.8761Z" fill="white"/>
<path d="M103.439 16.042V17.4117C103.439 19.9141 102.415 22.1532 100.716 23.7863V23.839C99.0179 25.4459 96.6995 26.4995 94.1923 26.4995H84.1369C81.5759 26.4995 79.2305 25.4459 77.5861 23.839C75.8877 22.1795 74.8633 19.9141 74.8633 17.4117V9.03512C74.8633 6.53268 75.9147 4.24098 77.5861 2.6078C79.2305 1.02732 81.5759 0 84.1369 0H94.1923C96.7534 0 99.0448 1.00098 100.716 2.63415C102.415 4.29366 103.439 6.55902 103.439 9.06146V11.0107H95.3515V9.06146C95.3515 8.71902 95.2168 8.42927 95.0011 8.21854C94.7854 8.0078 94.4889 7.8761 94.1654 7.8761H84.11C83.7595 7.8761 83.463 8.0078 83.2473 8.21854C83.0316 8.42927 82.8968 8.71902 82.8968 9.06146V17.438C82.8968 17.7805 83.0316 18.0702 83.2473 18.281C83.463 18.4917 83.7595 18.6234 84.11 18.6234H94.1654C94.4619 18.6234 94.7854 18.4917 95.0011 18.281C95.2168 18.0702 95.3515 17.7805 95.3515 17.438V16.0683H103.439V16.042Z" fill="white"/>
<path d="M240.09 0H250.092C252.653 0 254.998 1.02732 256.669 2.63415C258.368 4.29366 259.392 6.55902 259.392 9.06146V17.438C259.392 19.9405 258.341 22.2322 256.669 23.8654C254.971 25.4722 252.653 26.5259 250.092 26.5259H240.09C237.529 26.5259 235.184 25.4722 233.512 23.8654C231.868 22.2059 230.816 19.9405 230.816 17.438V9.06146C230.816 6.55902 231.868 4.26732 233.512 2.63415C235.211 1.02732 237.529 0 240.09 0ZM250.092 7.8761H240.09C239.74 7.8761 239.443 8.0078 239.227 8.21854C239.012 8.42927 238.877 8.71902 238.877 9.06146V17.438C238.877 17.7805 239.012 18.0702 239.227 18.281C239.443 18.4917 239.74 18.6234 240.09 18.6234H250.092C250.442 18.6234 250.739 18.4917 250.954 18.281C251.17 18.0702 251.305 17.7805 251.305 17.438V9.06146C251.305 8.71902 251.17 8.42927 250.954 8.21854C250.739 8.0078 250.442 7.8761 250.092 7.8761Z" fill="white"/>
<path d="M51.9485 26.5259L38.4155 12.3541V26.5259H30.355V0H37.0676L50.6276 14.1717V0H58.6611V26.5259H51.9485Z" fill="white"/>
<path d="M159.809 26.5259L146.303 12.3541V26.5259H138.269V0H144.982L158.488 14.1717V0H166.521V26.5259H159.809Z" fill="white"/>
<path d="M71.4126 0H63.3521V26.5259H71.4126V0Z" fill="white"/>
<path d="M178.706 7.40195H169.163V0H196.283V7.40195H186.74V26.5259H178.706V7.40195Z" fill="white"/>
<path d="M199.141 26.5259V0H218.847C221.543 0 223.834 0.921951 225.425 2.50244C227.015 4.05659 227.932 6.84878 227.932 9.48293C227.932 11.8537 227.15 14.4351 225.775 15.9629C224.859 16.9376 223.7 17.6488 222.352 18.1493L228.417 26.5259H219.144L213.482 18.7024H207.201V26.5259H199.141ZM207.201 11.3532H219.898V7.42829H207.201V11.3532Z" fill="white"/>
<path d="M284.517 26.5259H262.789V0H270.85V19.1239H286V26.5259H284.517Z" fill="white"/>
<path fill-rule="evenodd" clip-rule="evenodd" d="M3.50457 11.3532L13.1017 22.3112L22.7528 11.3532H17.3881V0H26.2573V15.9102C25.7451 22.2059 18.736 27.2371 13.1017 27.2371C7.46743 27.2371 0.512207 22.2059 0 15.9102V0H8.86926V11.3268H3.50457V11.3532Z" fill="white"/>
<path d="M26.2843 31.7415H0V39.6176H26.2843V31.7415Z" fill="#F08E44"/>
<path d="M32.0534 44.7542H30.355V53.842H32.2151V47.4937C32.2151 47.4937 32.3768 48.0732 32.7543 48.4683L34.0483 50.1805H35.9084L37.2024 48.4683C37.5528 48.0732 37.7415 47.4937 37.7415 47.4937V53.842H39.6017V44.7542H37.9572L35.0457 48.5737H34.9379L32.0803 44.7542H32.0534Z" fill="#F08E44"/>
<path d="M43.5105 53.842L44.2654 52.0244H49.1178L49.8727 53.842H51.8676L48.0665 44.7542H45.3167L41.5156 53.842H43.5105ZM44.9124 50.3385L46.6107 46.3873H46.7994L48.4439 50.3385H44.9393H44.9124Z" fill="#F08E44"/>
<path d="M57.556 52.2878C55.8576 52.2878 54.6984 51.0234 54.6984 49.2585C54.6984 47.4936 55.8576 46.2819 57.556 46.2819C58.7691 46.2819 59.7666 46.9668 60.1979 48.0468H62.1928C61.7345 45.9921 59.9014 44.5697 57.583 44.5697C54.7793 44.5697 52.7305 46.5717 52.7305 49.2585C52.7305 51.9453 54.7793 53.9999 57.583 53.9999C59.9283 53.9999 61.7345 52.5775 62.1928 50.4438H60.1979C59.7935 51.5238 58.7961 52.2614 57.556 52.2614" fill="#F08E44"/>
<path d="M66.452 44.7542H64.5649V53.842H66.452V50.1278H70.8193V53.842H72.6524V44.7542H70.8193V48.4683H66.452V44.7542Z" fill="#F08E44"/>
<path d="M77.2623 44.7542H75.4561V53.842H77.2623V44.7542Z" fill="#F08E44"/>
<path d="M87.0751 53.842H88.7734V44.7542H86.9133V51.0234L81.7104 44.7542H80.0659V53.842H81.8721V47.5463L87.0751 53.842Z" fill="#F08E44"/>
<path d="M97.5078 46.4137V44.7542H91.3613V53.842H97.5078V52.1824H93.2215V50.1278H97.373V48.4683H93.2215V46.4137H97.5078Z" fill="#F08E44"/>
<path d="M110.825 52.2878C109.127 52.2878 107.968 51.0234 107.968 49.2585C107.968 47.4936 109.127 46.2819 110.825 46.2819C112.065 46.2819 113.063 46.9668 113.467 48.0468H115.516C115.004 45.9921 113.171 44.5697 110.825 44.5697C108.022 44.5697 106.027 46.5717 106.027 49.2585C106.027 51.9453 108.022 53.9999 110.825 53.9999C113.171 53.9999 114.977 52.5775 115.516 50.4438H113.467C113.063 51.5238 112.065 52.2614 110.825 52.2614" fill="#F08E44"/>
<path d="M122.121 44.5697C119.317 44.5697 117.322 46.5717 117.322 49.2585C117.322 51.9453 119.317 53.9999 122.121 53.9999C124.924 53.9999 126.919 51.998 126.919 49.2585C126.919 46.519 124.871 44.5697 122.121 44.5697ZM122.121 52.2878C120.422 52.2878 119.263 51.0234 119.263 49.2585C119.263 47.4936 120.422 46.2819 122.121 46.2819C123.819 46.2819 124.978 47.5463 124.978 49.2585C124.978 50.9707 123.738 52.2878 122.121 52.2878Z" fill="#F08E44"/>
<path d="M136.085 53.842H137.73V44.7542H135.924V51.0234L130.775 44.7542H129.076V53.842H130.936V47.5463L136.085 53.842Z" fill="#F08E44"/>
<path d="M139.778 46.4137H142.879V53.842H144.739V46.4137H147.839V44.7542H139.778V46.4137Z" fill="#F08E44"/>
<path d="M149.834 53.842H151.694V50.1278H153.042L155.441 53.842H157.49L155.441 50.5229C155.441 50.5229 155.199 50.2332 155.091 50.0751C156.547 49.9698 157.49 48.9424 157.49 47.4937C157.49 45.8342 156.385 44.7542 154.74 44.7542H149.834V53.842ZM151.721 48.4683V46.4137H154.767C155.307 46.4137 155.711 46.7561 155.711 47.2566V47.5463C155.711 48.1259 155.307 48.4683 154.767 48.4683H151.721Z" fill="#F08E44"/>
<path d="M163.879 44.5697C161.129 44.5697 159.081 46.5717 159.081 49.2585C159.081 51.9453 161.129 53.9999 163.879 53.9999C166.629 53.9999 168.678 51.998 168.678 49.2585C168.678 46.519 166.629 44.5697 163.879 44.5697ZM163.879 52.2878C162.181 52.2878 161.022 51.0234 161.022 49.2585C161.022 47.4936 162.181 46.2819 163.879 46.2819C165.578 46.2819 166.737 47.5463 166.737 49.2585C166.737 50.9707 165.497 52.2878 163.879 52.2878Z" fill="#F08E44"/>
<path d="M170.942 53.842H176.577V52.1824H172.776V44.7542H170.942V53.842Z" fill="#F08E44"/>
<path d="M187.698 45H186V54.0878H187.86V47.7395H187.914C187.914 47.7395 188.103 48.319 188.372 48.7141L189.72 50.4263H191.526L192.82 48.7141C193.171 48.319 193.36 47.7395 193.36 47.7395H193.414V54.0878H195.22V45H193.575L190.718 48.8195H190.556L187.698 45Z" fill="#F08E44"/>
<path d="M198.844 53.842L199.599 52.0244H204.451L205.206 53.842H207.201L203.454 44.7542H200.65L196.849 53.842H198.844ZM200.327 50.3385L201.971 46.3873H202.133L203.831 50.3385H200.327Z" fill="#F08E44"/>
<path d="M213.24 44.7542H209.196V53.842H213.24C215.989 53.842 218.038 51.8927 218.038 49.2849C218.038 46.6771 215.989 44.7805 213.24 44.7805M211.029 46.4137H213.24C214.884 46.4137 216.097 47.599 216.097 49.2849C216.097 50.9707 214.857 52.2088 213.24 52.2088H211.029V46.44V46.4137Z" fill="#F08E44"/>
<path d="M226.449 46.4137V44.7542H220.303V53.842H226.449V52.1824H222.19V50.1278H226.395V48.4683H222.19V46.4137H226.449Z" fill="#F08E44"/>
<path d="M239.901 52.3405C238.311 52.3405 237.259 51.84 237.259 51.0761H235.453C235.453 52.841 237.205 54 239.901 54C242.759 54 244.349 52.9727 244.349 51.0235C244.349 49.2059 243.001 48.3366 239.955 48.3366C238.203 48.3366 237.502 48.0996 237.502 47.4147C237.502 46.6244 238.311 46.1503 239.901 46.1503C241.303 46.1503 242.301 46.6771 242.301 47.4674H244.107C244.107 45.7025 242.408 44.5435 239.901 44.5435C237.098 44.5435 235.642 45.5181 235.642 47.4147C235.642 49.3113 236.936 49.9961 239.793 49.9961C241.654 49.9961 242.489 50.2859 242.489 51.0235C242.489 51.8927 241.546 52.3405 239.928 52.3405" fill="#F08E44"/>
<path d="M248.501 44.7542H246.641V53.842H248.501V44.7542Z" fill="#F08E44"/>
<path d="M252.949 44.7542H251.251V53.842H253.111V47.4937C253.111 47.4937 253.273 48.0732 253.65 48.4683L254.944 50.1805H256.804L258.098 48.4683C258.449 48.0732 258.638 47.4937 258.638 47.4937V53.842H260.498V44.7542H258.853L255.942 48.5737H255.834L252.976 44.7542H252.949Z" fill="#F08E44"/>
<path d="M265.107 50.1278H267.56C269.259 50.1278 270.364 49.0478 270.364 47.4937C270.364 45.8342 269.259 44.7542 267.56 44.7542H263.22V53.842H265.08V50.1278H265.107ZM265.107 46.4137H267.56C268.154 46.4137 268.504 46.7561 268.504 47.2566V47.5463C268.504 48.1259 268.154 48.4683 267.56 48.4683H265.107V46.4137Z" fill="#F08E44"/>
<path d="M272.062 53.842H277.751V52.1824H273.95V44.7542H272.062V53.842Z" fill="#F08E44"/>
<path d="M286 46.4137V44.7542H279.854V53.842H286V52.1824H281.66V50.1278H285.892V48.4683H281.66V46.4137H286Z" fill="#F08E44"/>
</g>
<defs>
<clipPath id="clip0_2022_4363">
<rect width="286" height="54" fill="white"/>
</clipPath>
</defs>
</svg>
