<svg width="133" height="125" viewBox="0 0 133 125" fill="none" xmlns="http://www.w3.org/2000/svg">
<path d="M49.9936 81.7185L52.7216 80.5454L53.5492 80.1798V78.7325H52.8596L52.4151 76.6301L52.9975 76.4168V75.7008H53.6565L54.0397 75.1676L53.8404 74.5582L54.2083 74.1164L55.7562 74.8324L56.3999 74.0555L56.0014 70.582L56.216 70.1554L55.9554 69.4546L56.8597 68.9062V66.819L57.3348 66.4839L57.8559 65.6612L58.4536 65.9354L59.5724 65.6917L60.2161 66.2401L61.4268 64.3967L60.6759 63.9244L60.8904 60.908H61.6414L61.8253 61.1213L63.128 60.9232L63.5265 60.7404L63.8177 60.1615L63.1893 59.9482L63.971 58.2572L65.4423 57.9677L65.7182 58.0591L66.0247 57.206H65.2584L64.9365 55.7739L64.7526 55.2559L63.879 54.7075L63.0514 55.3778L61.2736 55.5606L60.0015 53.4735L58.5302 52.9708L58.7141 52.27L58.193 52.0262L57.9631 52.6508L56.2466 52.8641L56.4152 51.295L56.3539 51.2797L56.1087 51.7368L55.6642 52.1786L54.2542 52.468L52.6603 51.8891L52.5837 51.0512H52.0626L50.4227 50.4266L49.825 49.4516L48.5989 49.0098L47.2042 50.0152L46.913 48.9793L46.6218 48.4308L46.2847 47.6996L44.8593 48.3699L44.2003 48.05L44.3229 47.0293L43.5566 46.6484L43.7405 45.5058H44.6907L44.7214 42.4284L43.342 41.8343L42.4838 41.9714L42.024 41.1335L42.6983 38.2846L42.9282 37.9951L42.4225 37.5533L42.4684 36.0603L43.6026 35.7252L43.7099 35.0549L43.3114 34.9177L43.0202 34.0037L41.7175 33.379L41.2883 32.6021L41.8707 32.2212V31.8861L42.9895 30.1798L42.4531 30.1188L41.9014 29.6161L39.2959 29.1743L38.8821 29.7837L37.8859 29.8446L37.9319 29.1895L37.135 28.9458L36.5679 26.9653L36.246 27.2547H35.7709L35.0046 27.4985L34.7441 29.418L33.7479 30.5454L31.0965 30.6673L31.4183 32.1907L34.4989 33.9884L33.2728 35.9994L32.4298 36.1213L31.7555 37.34L30.2842 37.7818V38.0561L29.7631 38.574L29.6405 39.5034L28.9202 40.3108L28.0006 40.1737L26.1002 40.9506L24.5829 40.2346L24.4143 40.4479V41.88L24.7055 42.5198L24.5829 44.607L23.7859 44.8964V45.1554L24.0465 45.3687L24.5216 47.3035L22.4219 47.8519L22.2227 48.7508L23.7093 52.9251L23.1422 53.3059L22.6978 53.1993L22.5905 53.3821L22.6978 53.7782L23.6786 54.1286L23.602 56.231L23.2035 56.9775L23.0962 58.9732L23.6173 59.2322L23.0962 60.39L25.0273 61.3498L24.7821 62.4314L25.3185 63.0104L26.5753 62.8276L26.9124 64.4272L26.6366 64.8995L27.4335 65.3565L28.2305 64.8995L29.5945 65.4174L30.4988 66.3924L30.4221 67.2456H31.8628L33.564 67.9921L33.7019 68.7081L34.131 69.089L33.6253 69.5003L33.6713 69.805L35.1579 70.2316L35.4184 71.0238L35.7709 71.5265L36.5372 71.3132L37.794 72.1664L38.453 71.9988L38.9588 72.3797L39.3419 71.8312L40.9358 71.7703L40.6293 70.6277L41.4723 70.1402L44.6294 70.6886L45.8862 71.6789L46.162 72.7758L45.5796 73.2633H45.3038L45.6563 74.9086L45.9475 75.1981L46.7751 74.7258L47.3422 75.2285L47.8786 74.9848L48.3077 75.4113L48.0165 76.2797L48.6142 77.0414L48.415 79.1591L48.8594 79.6009L50.0242 79.9056L49.5031 81.3528L49.9936 81.7185Z" fill="#222222"/>
<path d="M43.6639 29.9665H43.6486L42.2999 32.0232V32.4497L41.8555 32.7392L42.0241 33.0591L43.3728 33.699L43.6639 34.5826L44.2004 34.7806L43.9705 36.0603L42.8823 36.3955L42.8517 37.3705L43.526 37.9494L43.0816 38.4979L42.4685 41.0878L42.6984 41.5143L43.3728 41.4077L45.1353 42.1694L45.0893 45.9628H44.0778L44.0011 46.4351L44.7674 46.816L44.6448 47.8367L44.8441 47.9281L46.484 47.1664L47.005 48.2937L47.3116 48.8574L47.4495 49.3449L48.5223 48.568L50.1162 49.1469L50.714 50.1219L52.1393 50.6703H52.9822L53.0742 51.6149L54.3003 52.0567L55.4497 51.8282L55.7716 51.5235L56.1241 50.8684L56.9057 50.9446L56.7371 52.4071L57.6567 52.2852L57.9479 51.4625L59.22 52.0719L59.0514 52.727L60.2928 53.1536L61.5035 55.1341L62.8829 54.9817L63.8484 54.2048L65.1052 55.0122L65.2738 55.4692L65.8562 55.2712L67.4807 54.8599L68.385 54.1743L68.0325 53.245L68.8448 52.8946L69.5804 51.6454L68.7221 51.295L69.3505 50.5332L70.1781 50L69.657 49.1926L69.703 48.3699L70.7605 47.0293L71.2203 47.1359L71.3429 46.2371L70.1321 44.9421L70.6226 44.3327L71.251 44.028L70.8218 43.0987L70.3927 41.819L71.4655 42.1237L72.1245 41.9561L72.2165 41.3468L73.2127 41.4077L73.5958 41.5753L73.5039 40.6307L73.1361 38.2389L74.5461 37.5533L74.2855 37.0201L74.1936 36.1975L73.7185 36.0908V35.1463L74.2395 34.872L74.1629 34.6435L73.6265 34.415V33.6837L73.3046 33.6533L72.4157 33.9275H71.5268V33.3638C71.113 33.4248 70.5 33.5009 70.408 33.5009C70.3314 33.5009 70.2701 33.4705 70.2241 33.4095C70.1935 33.3638 70.1015 33.2724 70.1781 32.8154L69.6417 32.1908L68.4003 32.7087L67.8486 32.2212L67.542 30.3017L67.2202 28.7173L66.1627 28.1079L63.1741 28.2602L61.3809 27.8794L61.1664 26.5387L61.5649 26.036L61.5495 26.0055L61.0284 26.1121L60.584 25.8684L58.9134 26.6149L58.2851 25.8074L56.8904 25.8532L54.8673 25.6246L54.8214 24.8629L52.5378 24.0859L52.1546 24.8934L51.3423 25.1067L50.0703 24.5277L50.0549 24.802L50.4841 25.2285L49.166 26.3711L48.599 26.036L48.3537 26.5692L47.9093 27.27L48.1852 27.8794L47.3269 28.504L46.2847 28.3212L45.0433 28.4583L44.7981 27.8794L44.2463 28.0165L43.8938 29.2048L43.7253 29.8599H43.7559L43.6946 29.9513L43.6639 29.9665Z" fill="#222222"/>
<path d="M81.3818 78.702L81.5811 78.8696L81.3818 78.6868V78.702Z" fill="#222222"/>
<path d="M115.651 10.5424L115.452 12.3857L114.486 12.6295L113.138 12.8733L111.513 14.2596L112.019 15.3717L112.8 15.2803L113.245 16.6362L112.954 16.9257L112.923 17.2608L113.459 17.6112L114.41 19.5003L115.344 20.6124L115.253 21.8769L114.44 22.6386L114.302 24.4668L113.199 24.6953L112.616 25.3047L112.157 25.0762L111.16 25.777L110.624 26.7367L110.103 26.2949L107.406 28.443L105.674 29.4942L104.877 30.195L104.509 29.936L103.819 30.0274L102.869 31.0481L101.076 30.4692L99.5586 30.6368V31.886L100.463 32.6478V33.5009L101.061 33.9275L100.248 34.7197V35.7099L100.892 38.1627L102.563 38.4522L102.884 39.3662H103.942V40.3108H103.451L103.222 40.9202L104.647 41.5448L105.076 42.1999L104.785 43.0987L105.183 43.7843L106.946 44.1194L107.283 43.3272L108.524 43.4339L108.831 44.4851L108.325 44.6984L108.892 46.2675L109.321 45.9324L109.934 45.5515H111.069V48.9488L110.486 49.7563L111.237 50.5484L111.942 51.752L111.728 52.4528L111.896 52.6508L112.417 53.9762L115.835 54.6313L117.214 54.4028L118.915 55.911V56.3681L119.513 56.5509H120.264L120.709 56.5966L123.069 51.9653L126.395 49.5125L128.08 49.3754L130.548 47.3187V40.9049L129.644 39.6862L130.104 37.4162L129.383 36.3193L128.923 35.9842L125.736 24.6039L125.352 24.1621L125.276 22.4101L124.372 19.1651L125.092 17.5503L124.494 15.2194L122.548 13.3455L121.306 13.0256L119.881 11.7307L119.161 11.9287L118.64 11.6088L118.778 11.0908L117.935 10.6947V10.1767L115.912 9.59781L115.528 10.1158L115.651 10.5424Z" fill="#FCBF00"/>
<path d="M69.8253 83.8361L70.6223 84.217L71.0514 85.2834L71.2353 86.1213H71.4192L72.5074 85.7709L73.0591 86.3041H73.5802L73.8867 86.9287H74.3618L74.5304 86.8678L75.1588 85.6795H75.8331V84.9178L76.109 82.922L77.7029 83.4857L78.2087 84.4759H78.3006L78.6531 82.8306H77.8102V80.972L78.1934 80.6368L77.6416 79.8446L81.3046 79.5856V79.1895L80.8141 78.763L81.3046 78.0165L81.8869 78.5497L82.0555 78.7173L82.6686 78.3364L82.7759 78.5344C82.8065 78.5801 82.8372 78.6411 82.8678 78.6868C82.9138 78.6411 82.9751 78.5802 83.0364 78.5192L82.7146 77.8337C82.6839 77.7727 82.5919 77.5747 82.6533 77.3918C82.6839 77.3004 82.7605 77.2243 82.8372 77.1938C82.9598 77.1329 83.3736 76.95 83.5268 76.8586L83.6035 76.6911L83.4196 76.6149L83.8027 75.1676H84.4311L84.9828 74.0859L84.7529 73.2633H83.8334L83.6801 71.8922L83.4502 70.7039H82.9291L83.1897 69.6679L84.3698 69.028L84.8296 69.5308L86.2396 69.8355L86.6994 69.4089L86.4235 68.4948L85.7645 68.2816L85.4579 66.4686L85.933 66.2096L85.32 65.3717L84.1552 65.1432V64.4424L83.864 64.0768L82.3927 64.5795H81.3659L81.182 63.7721L81.5498 63.2846L80.4923 62.2791L81.09 61.3498L81.2892 60.6033L79.9865 59.8416L79.2662 60.131L78.6225 59.0037L78.8217 57.7697L77.3811 57.1603L77.2125 56.5509L76.7221 56.3224L76.1856 56.8861L75.1128 57.206H73.2737L72.7219 56.6575H71.787L71.0974 55.5911H69.1203C68.9364 55.5911 68.8291 55.4388 68.6299 54.8751C68.5992 54.7837 68.5686 54.677 68.5379 54.5856L67.6796 55.2255L65.9784 55.6521L65.4114 55.8349L65.6259 56.7489H66.6681L66.0091 58.5923L65.442 58.3943L64.3079 58.6228L63.8175 59.6892L64.4612 59.9177L63.8634 61.0603L63.281 61.3346L61.6718 61.5783L61.4726 61.3346H61.3193L61.1507 63.6959L62.055 64.2596L60.3384 66.88L59.4955 66.1487L58.438 66.362L58.0548 66.1944L57.687 66.7733L57.3345 67.0323V69.1347L56.5222 69.6222L56.7215 70.1706L56.4916 70.6429L56.8594 74.1926L55.8632 75.3504L54.3306 74.6496L54.5145 75.2438L53.8708 76.1274H53.4264V76.7215L52.9053 76.9043L53.2118 78.3059H53.9781V80.2864L54.116 80.6673H55.618L55.8785 81.0025L56.8594 81.0329L57.7023 81.2919V81.7642H58.0548V80.9415H59.1123V82.0689L59.8787 82.4345L60.2465 82.6326L60.7829 82.3583H62.6833L63.1738 82.4802L63.6336 81.8404L64.875 82.3126L65.534 83.2115L66.1624 83.1201L66.4536 83.7294L67.3884 84.1408L67.6796 83.897L68.0168 83.0591L69.4881 82.8915V83.6533L69.8253 83.8361Z" fill="#222222"/>
<path d="M119.191 56.9013L118.486 56.6728V56.1091L117.091 54.8751L115.819 55.0731L112.11 54.3571L111.528 52.8641L111.268 52.5442L111.497 51.7977L110.915 50.7922L109.949 49.7867L110.654 48.7965V45.9628H110.072L109.582 46.2675L108.708 46.9531L107.804 44.4241L108.325 44.2108L108.202 43.8147L107.559 43.7538L107.206 44.5765L104.922 44.1347L104.309 43.1139L104.601 42.2303L104.355 41.8647L102.685 41.1182L103.145 39.8537H103.512V39.7776H102.593L102.24 38.8178L100.555 38.5131L99.8189 35.7556V34.5216L100.386 33.9579L100.033 33.699V32.8153L99.1292 32.0689V30.6673L97.428 30.8501L97.52 31.7794L94.2249 32.0841L92.0332 33.9884L91.4815 33.44L90.5159 33.379L90.3627 34.1408L89.1519 34.7501L88.2017 34.3083H87.8186L86.899 35.6337L85.0599 36.0908L84.4008 35.9384L82.3625 38.0104L80.6919 37.7514L79.849 38.0865L79.3585 37.5685L77.7033 37.9342L76.5998 37.4924L76.8757 36.7154L76.7531 36.624L76.1094 37.142L76.0021 38.2541L75.0519 37.7818L73.6266 38.4674L73.9484 40.5698L74.117 42.2456L73.1361 41.819L72.5997 41.7885L72.5231 42.2913L71.4656 42.5503L71.0824 42.4436L71.251 42.9311L71.8487 44.2108L70.9292 44.6679L70.7299 44.9116L71.8181 46.0847L71.6035 47.6539L70.9598 47.5015L70.1475 48.5222L70.1169 49.0554L70.7912 50.1066L69.6571 50.8379L69.4425 51.0969L70.2089 51.4168L69.1514 53.2145L68.5996 53.4582L68.9215 54.3114H68.9061C69.0134 54.6465 69.136 55.0122 69.2127 55.1493H71.343L72.0327 56.2157H72.9062L73.458 56.7642H75.0519L75.9561 56.4899L76.6305 55.7739L77.596 56.2309L77.7646 56.8251L79.3279 57.4954L79.098 58.9122L79.4811 59.5826L80.0482 59.354L81.826 60.39L81.5195 61.5174L81.0904 62.2029L82.1785 63.2389L81.6881 63.8635L81.7494 64.1529H82.3625L84.0637 63.5588L84.6307 64.2901V64.7471L85.6116 64.9451L86.6231 66.3163L85.9794 66.6514L86.194 67.9007L86.8224 68.1139L87.2362 69.5003L86.4085 70.262L84.646 69.8812L84.3242 69.5308L83.6192 69.9116L83.5426 70.2316H83.8797L84.1709 71.7855L84.2782 72.791H85.1518L85.5196 74.1011L84.784 75.5789H84.2169L84.0023 76.3559L84.9526 76.7977L85.5656 78.8696L85.8108 78.6563L87.604 79.6465V80.5302L88.0331 80.3016L88.6308 80.5911L88.8607 80.1341L89.7037 80.2559L90.0408 79.4333L91.6654 80.6063L91.9106 80.3778L92.2631 79.1895L93.3513 79.6008L92.9988 80.7891L93.949 81.3833L93.7191 82.1146H96.2939L96.6004 83.2267H97.3054L98.1484 82.6478L100.662 82.0384L101.198 82.922L101.704 82.8915L102.011 82.5564L101.75 79.418L102.286 78.5497L101.52 78.0469L102.317 76.5235L101.98 76.1426L101.321 75.259L102.394 74.9543L102.624 73.8422L102.317 72.1968L99.7882 71.8921V71.3589L99.0679 71.0085L100.064 69.7288L101.137 70.6277L101.627 69.9421L102.394 70.0335L103.007 69.1804L102.225 67.855L103.926 67.078L103.666 66.4991L102.593 66.7276V65.8135L103.283 65.0518L102.486 63.4674L105.137 62.0049L106.256 62.2791L106.762 62.0201L108.141 62.2639L108.478 61.6849H109.26L109.413 62.4467L109.903 62.2943H110.271L111.436 61.0756L113.122 61.9592L113.275 61.9135V60.5423L114.225 60.2529L115.283 61.0451H116.34L116.126 60.6795L116.862 60.1919H117.183V59.7349L117.858 58.8665L118.486 58.897L118.272 58.12L119.145 57.2517L119.191 56.9013Z" fill="#222222"/>
<path d="M73.3205 10.1919L68.4621 12.4467L68.3088 12.8275L68.5541 12.9189L69.305 14.3662L68.5081 15.1584L68.2169 16.042L67.9563 16.3315L68.3088 16.8647L68.1249 17.4436L68.5694 17.596L68.646 18.2511L68.9985 18.1596L70.148 18.7843L69.8568 20.0487L70.5005 20.2316L71.5426 19.9421H72.7841L71.1442 24.284L70.01 23.0957L69.2744 23.2175L68.9066 24.4515L68.1403 25.198L67.8337 26.8129L66.6689 27.8489L67.5732 28.3668L67.941 30.1645L68.2322 31.947L68.4621 32.145L69.7495 31.5966L70.6231 32.6325L70.6078 32.7392C70.5924 32.8306 70.5771 32.922 70.5771 32.9982C70.8223 32.9677 71.2821 32.9068 71.6959 32.8458L71.9411 32.8153V33.44H72.3396L73.2438 33.1657L74.0408 33.2572V34.0951L74.5006 34.2931L74.7305 35.0548L74.1328 35.3748V35.7099L74.5619 35.8166L74.6845 36.8678L74.9144 37.34L75.0217 37.2943L75.6041 37.5838L75.6654 36.9135L76.7229 36.0756L77.3666 36.5783L77.1214 37.2486L77.7191 37.4924L79.4816 37.0963L79.9414 37.5838L80.631 37.3248L82.1943 37.5685L84.248 35.4814L85.045 35.6642L86.6235 35.2681L87.5738 33.8818H88.2941L89.137 34.2779L89.9646 33.8665L90.1486 32.9372L91.6505 33.0439L92.0337 33.4247L94.0261 31.688L97.03 31.3985L96.9533 30.4692L101.137 30.0122L102.747 30.5302L103.605 29.6008L104.616 29.4485L104.846 29.6161L105.413 29.1286L107.161 28.0621L110.103 25.716L110.502 26.0512L110.823 25.4723L112.126 24.5582L112.525 24.7562L112.969 24.2687L113.904 24.0707L114.027 22.4101L114.839 21.6484L114.916 20.7191L114.057 19.7136L114.042 19.6983L113.122 17.8854L112.463 17.4589L112.525 16.6971L112.739 16.4838L112.494 15.7221L111.743 15.7983L110.977 14.1072L112.938 12.4467L114.394 12.1877L115.053 12.0201L115.207 10.5576L97.8882 11.3955L86.7462 10.5119L73.5964 8.37903L73.3971 8.4552L73.3205 10.1919Z" fill="#222222"/>
<path d="M101.858 83.3029L100.907 83.3638L100.402 82.5259L98.2866 83.0287L97.413 83.638H96.2329L95.9264 82.5259H93.091L93.3822 81.5509L92.432 80.9568L92.7692 79.8446L92.4933 79.738L92.2328 80.6064L91.6351 81.1396L90.1637 80.0884L89.9032 80.713L89.0449 80.5911L88.7691 81.1548L87.9874 80.7739L87.1292 81.231V79.8903L85.8265 79.1743L85.3054 79.6313L84.5544 77.1024L84.0333 76.8586L83.9107 77.1633L83.8341 77.1938C83.8034 77.209 83.313 77.4528 83.0984 77.5442C83.0984 77.5747 83.1137 77.6051 83.1291 77.6204L83.5735 78.5649L83.4816 78.6716C83.0831 79.1286 82.9605 79.1286 82.8992 79.1438C82.8379 79.1438 82.7153 79.1743 82.5313 78.9153L82.0102 79.2505L81.7497 78.9915V79.9817L78.4393 80.2103L78.7764 80.6978L78.2554 81.1548V82.3736H79.2056L78.6692 84.872H77.9642L77.4124 83.7904L76.4775 83.4552L76.2783 84.9025V86.0451H75.4354L75.0828 86.7154L75.466 86.9135L75.9411 87.5229L75.4047 88.2846L75.2208 89.1073H74.4851L74.4238 89.7319L76.4162 90.0671V90.7831L76.1557 91.0725L76.7074 91.3315L77.2438 91.6362V92.078L76.3549 92.1847L76.171 92.8702L75.8798 93.0378L76.4775 93.3273H76.8913L77.1672 94.0128H77.3358L78.1021 93.5558L79.4814 94.287L81.7191 94.6527L82.0409 95.9933L82.7153 96.9074L82.3628 97.3949L82.6539 97.8976L83.0371 99.1926C83.1597 99.4211 83.3283 99.6801 83.3743 99.7258C83.3436 99.6953 83.4816 99.8477 83.4816 99.8477V100.152L83.9873 100.731L87.3591 99.9696L87.7729 99.1012L88.4779 98.7203L89.2748 98.9336L90.1178 98.2176H91.5737L92.5546 97.1512L93.6734 97.4711L93.9033 97.4254L95.1754 95.6734L96.8306 95.5058L97.1984 95.0792V94.5308L99.2215 93.9062L100.647 91.4077L101.75 91.0116L102.547 88.6502V87.4772L101.95 84.7502V83.1962L101.858 83.3029Z" fill="#FCBF00"/>
<path d="M10.973 74.025L11.1723 76.4321L11.5401 76.1883L11.8926 75.4875L12.5363 75.2437L12.7202 74.5887L14.5133 74.1621L15.8774 75.0457L16.0306 73.7812L16.3525 73.7355L16.2912 73.2937L16.6897 72.5625L18.4522 72.6539L19.5556 73.8422L19.7549 74.2535L20.889 72.8976L20.7971 72.2578L22.1764 71.7703L23.0806 68.6319L24.2761 68.2663V66.9561L25.1956 66.8952L27.5252 67.7331L27.2647 68.6624L27.9084 68.571L28.5214 69.3327L29.4103 68.6776L29.9467 67.6112L30.054 66.5448L29.3337 65.7831L28.2609 65.3717L27.4333 65.844L26.0386 65.0518L26.4524 64.351L26.2225 63.315L25.165 63.4674L24.3067 62.5533L24.5366 61.5783L22.5289 60.5881L23.05 59.4302L22.6515 59.2322L22.7741 56.8556L23.1726 56.1243L23.2339 54.4333L22.345 54.0981L22.1151 53.3364L22.4676 52.7118L23.0653 52.8489L23.1879 52.7575L21.7779 48.7812L22.0538 47.5015L24.0002 46.9988L23.663 45.6124L23.3565 45.3534V44.5917L24.1688 44.3023L24.2761 42.596L23.9849 41.9714V40.2955L24.6899 39.3815L24.3067 38.7873L23.2033 38.7112L22.9887 39.3358L22.4676 39.5033L21.7626 41.4838L19.479 41.8647L18.7587 40.9354L16.2145 42.3065H15.6168L16.1686 43.6624L12.5669 44.7441L10.6358 43.7995L10.4213 44.1194L10.36 44.7898L10.0228 44.8964V45.78L9.21051 46.2523L9.14921 47.0293L8.29095 49.223L7.57062 49.4668L6.5591 48.7355L5.5629 49.4058L6.74301 50.3504L6.46714 50.9293L6.32921 51.5996L6.69703 52.011L6.06866 53.1536L5.6242 53.2754L5.33301 53.961L5.63953 54.5704L6.05334 56.8251L7.43269 57.2364L7.78519 57.6325L7.52464 58.6076L7.63192 59.2017L7.17214 59.5064L7.46334 60.4814L8.22964 60.9537L8.3216 61.7002L7.76986 62.6752V64.5033L6.17594 65.9354L6.11464 66.7276L6.69703 66.9714L7.11084 68.4948L8.35225 69.6069L8.47486 71.1304L7.58595 71.9683L7.81584 72.9433L9.13388 73.1718L9.77758 73.7355L10.973 74.025Z" fill="#222222"/>
<path d="M34.9279 6.70323L35.0352 7.69348L35.7708 7.76965L36.6444 10.5728L35.8934 10.8013L35.8474 11.4564L36.4145 11.624L36.4758 13.3608L34.4374 13.833L35.6942 16.103L35.5869 18.7843L35.7861 18.6015L36.6904 19.028L36.5984 19.9726L38.1617 20.8867L38.223 21.9378L36.9969 21.8464L36.8743 22.273L37.2268 22.9129L37.8705 22.8519L37.6406 24.1316L36.6444 24.6496L36.8896 26.5235L37.4873 28.5954L38.3916 28.8696L38.3609 29.3876L38.6368 29.3723L39.0813 28.702L42.1005 29.2048L42.6522 29.7075L43.2653 29.7684L43.4492 29.0524L43.8783 27.6204L45.0278 27.3309L45.2883 27.9403L46.2692 27.8336L47.1888 28.0012L47.6026 27.6813L47.3727 27.1938L47.9397 26.2949L48.3842 25.3656L49.0892 25.7922L49.8249 25.1676L49.5796 24.9238L49.6409 23.8269L51.3575 24.6039L51.8173 24.482L52.2924 23.507L55.2043 24.5125L55.2503 25.198L56.8749 25.3809L58.4688 25.3352L59.0205 26.0512L60.5838 25.3504L61.0742 25.6246L61.7486 25.4723L62.0704 26.036L61.6106 26.6301L61.7486 27.4832L63.2046 27.7879L66.3311 27.6356L67.4499 26.6301L67.7564 25.0305L68.5227 24.2535L68.9365 22.8672L70.1626 22.6539L70.9749 23.507L72.155 20.3839H71.6033L70.5151 20.6886L69.3503 20.3687L69.6568 19.0128L68.9518 18.6167L68.2775 18.7843L68.1855 17.9159L67.6031 17.7331L67.8484 16.9409L67.4192 16.301L67.8484 15.8288L68.1396 14.9299L68.7986 14.2901L68.2775 13.2693L67.7564 13.1018L68.1242 12.142L72.8907 9.91773L72.9673 8.63803L68.2162 10.5728L64.3693 10.8927L63.9862 10.5119L63.649 10.9537L61.1815 10.3138L60.921 9.73492L58.9745 9.01889L59.0359 6.36807L57.6412 3.15357L56.5224 2.31566L56.9822 0.868373L59.1585 2.22425L59.5569 2.46801L60.0934 2.87934L60.9363 3.32115L62.285 5.43876L62.5762 4.84461L61.3807 3.32115L56.1545 0.182815L49.8402 0L39.1885 3.27544L37.3034 5.34735L34.2842 5.92626L34.9279 6.70323Z" fill="#222222"/>
<path d="M124.234 99.4058V98.964L122.732 98.6746L123.376 97.8367L122.717 97.3339L122.502 96.7093L121.215 97.8062L120.648 97.1968L120.203 96.8616L118.272 99.223L112.693 98.6289V97.8976L113.368 97.6691H110.885L110.456 96.7398H109.735V95.8409H110.348L110.563 95.1097H111.942L112.188 94.7593L112.019 94.5764L111.391 93.9061L111.605 93.5557L111.207 93.0987L110.073 92.8854L107.712 92.337V91.758L107.191 91.3467L106.088 91.0725L106.624 90.2498L106.992 89.0615H106.302V88.2846L105.567 87.9037L105.015 88.8939H102.931L102.103 91.3315L100.954 91.7428L99.5283 94.2565L97.6431 94.8354V95.2315L97.0608 95.9171L95.4209 96.0847L94.2867 97.6843L94.5473 98.5222L93.735 99.4515V102.179L94.1641 102.605L93.735 103.778V103.9L94.2254 104.266L93.5664 105.027L93.9649 105.957L95.2216 106.094L95.7274 107.313H94.7312L94.7925 107.861H95.8193L96.3404 108.76L95.8193 109.156H95.053L94.8691 109.4L95.053 109.598L95.6967 109.765L96.2791 112.431L95.8653 112.934L96.5397 113.62L96.3864 114.229L97.2294 114.899L96.8615 115.874L96.9075 116.392L97.2447 116.758L99.8501 116.149L100.249 116.758L100.8 116.667L101.843 117.962L102.149 117.581L102.578 117.276L103.36 118.007L104.187 118.144L105.107 119.561L105.061 120.719L106.701 121.161L107.145 121.587L107.528 121.496L107.743 122.197H109.613L110.18 123.263L112.387 123.05L113.475 124.436L115.084 124.132L116.034 125L116.433 124.863L116.295 124.269L116.387 123.141L115.207 122.273L114.257 121.679V121.115L114.64 120.856L114.257 120.46L114.609 118.617L113.904 115.113L113.383 115.067V114.214L115.299 111.319L115.989 110.679L117.69 108.303L120.586 104.464L120.985 103.824L125.169 99.6953L124.234 99.4058Z" fill="#FCBF00"/>
<path d="M71.0055 112.645L70.8062 111.639H69.948L69.4575 111.121L70.5304 110.085L70.3465 109.613H68.9824L68.4154 107.983L67.787 107.77L67.2812 108.074L66.7295 107.617L66.99 106.917L67.0667 106.109H66.5916L65.8099 105.881L66.6222 103.656L67.5571 103.352L67.4345 103.138L68.0475 101.767L69.1204 101.493V100.731L69.7947 100.579L70.2392 100.229L69.7334 100.091L68.8138 99.2078H69.6415L69.902 98.6441L70.1166 97.6234L70.7143 97.9586H70.9595L70.9748 97.5777L70.8522 97.1511L71.1281 96.6331L71.8484 96.039H73.2737L73.9481 95.3839H76.4462L76.8601 94.6526H77.2739L77.2279 94.5003H76.8907L76.5995 93.8147H76.3696L74.9596 93.114L75.8026 92.6417L76.0171 91.8495L76.5382 91.7885L76.4922 91.7581L75.4347 91.2858L75.9711 90.6764V90.4784L73.9328 90.128L74.086 88.7264H74.8677L74.9903 88.1627L75.3887 87.5838L75.1742 87.2943L74.929 87.1725L74.4385 87.34H73.6262L73.3197 86.7154H72.8906L72.4002 86.2584L71.4959 86.5478H70.8829L70.6377 85.4052L70.2852 84.5216L69.6108 84.2017L69.0437 83.8665V83.3333L68.3081 83.4247L68.0322 84.1255L67.4498 84.6283L66.1318 84.0341L65.9019 83.5771L65.3348 83.6685L64.5992 82.6478L63.7869 82.3431L63.3424 82.9525L62.6221 82.7696H60.9056L60.6757 82.8915L60.9209 83.44L60.2772 84.674L59.8481 84.872L59.894 85.2529L60.5377 85.4052L59.8787 87.3857H59.1584L58.9285 88.2389H58.3921L58.53 88.8178L59.3883 89.1834L58.3921 90.3565L58.4534 91.5295L59.6948 92.3522L59.7868 93.571H57.5338L57.4878 93.9062L58.4074 95.3382H57.5798L56.8441 95.1097L56.6909 96.0999L56.9668 96.4046L56.7522 97.2882L57.1507 98.0347L56.9668 98.9183L57.4725 99.4211L56.9208 99.7562H56.3844L54.9284 100.411V100.975L52.7674 101.341L52.5375 101.889L52.6601 102.636L52.3076 103.672L52.6448 103.946L52.9973 104.723L53.641 105.073L53.8249 104.768L54.1621 104.89L54.5146 105.378L55.1583 105.5L55.3882 106.185L55.7713 106.322L56.0778 105.804L57.0281 105.972L58.3768 106.886L58.9438 106.414L59.0205 107.434L59.4649 107.663L59.0205 108.257L60.0167 110.634L60.8443 110.725L61.2427 111.502L62.3156 111.456L62.9286 113.909L62.8367 114.564L64.1854 114.686L64.4919 116.286L64.3233 117.063L65.1356 117.139L65.4881 116.667L66.1471 116.88L67.2199 116.667L67.4805 115.89L68.0935 114.427L69.5648 114.305L69.7487 113.742L70.8829 112.888L71.0055 112.645Z" fill="#222222"/>
<path d="M132.831 87.2638L133 86.7459L131.13 85.4509L130.226 83.8513L130.042 82.4345L129.659 82.3888L129.352 81.6118V80.6216L128.264 80.0122L127.145 78.0317L126.67 78.0774L126.44 77.2547L126.93 75.1828L126.624 73.8879L126.18 73.8117L125.934 72.7605L125.49 72.471L125.229 70.7495L125.321 69.2718L125.137 68.0682L126.409 67.7635L126.44 66.7276L126.011 66.3924L126.9 62.6447L126.057 60.4509L124.57 59.5978L124.494 58.8208L123.451 58.638L120.524 57.922L120.631 57.0231L120.233 56.9927H119.62L119.451 57.4954L118.685 58.2419L118.992 59.354L117.98 59.2931L117.551 59.872V60.6185H116.923L116.631 60.8013L117.014 61.4717H115.068L114.072 60.7252L113.643 60.8623V62.2181L113.014 62.4162L111.451 61.6088L110.378 62.7057H109.888L109.014 62.9799L108.83 62.1115H108.662L108.294 62.7361L106.761 62.4619L106.24 62.7209L105.137 62.4619L102.976 63.6502L103.727 65.128L102.96 65.9811V66.1791L103.849 65.9963L104.447 67.276L102.792 68.0378L103.466 69.1956L102.547 70.4753L101.765 70.3839L101.152 71.237L100.064 70.3534L99.6807 70.8562L100.171 71.0999V71.5113L102.623 71.8007L103.006 73.8269L102.715 75.2742L101.98 75.4875L102.255 75.8684L102.792 76.4473L102.041 77.8946L102.823 78.4125L102.148 79.5094L102.409 82.6935H102.393V84.6892L102.991 87.4162V88.4521H104.754L105.397 87.3096L106.731 88.0256V88.635H107.589L107.007 90.4326L106.777 90.7983L107.39 90.9506L108.141 91.56V92.0018L110.164 92.4741L111.436 92.7026L112.141 93.51L111.926 93.8452L112.34 94.287L112.769 94.7136L112.156 95.5362H110.884L110.669 96.2675H110.164V96.298H110.731L111.16 97.2425H113.903V97.9586L113.122 98.2175V98.248L118.087 98.766L120.126 96.2675L120.953 96.8769L121.244 97.1968L122.7 95.9781L123.084 97.0749L123.973 97.7605L123.497 98.3851L124.662 98.5984V99.0859L125.505 99.3449L127.007 97.8671L127.436 96.7093L131.13 96.1913L131.82 95.4448L132.647 92.4741L132.31 90.585L132.218 89.8537L131.574 89.549V88.9854L130.777 88.7264L131.007 87.5228L132.831 87.2638Z" fill="#FCBF00"/>
<path d="M96.4161 115.813L96.7073 115.052L95.895 114.397L96.0483 113.757L95.282 112.965L95.8031 112.325L95.3127 110.131L94.7916 109.994L94.2552 109.43L94.8222 108.745H95.6345L95.7418 108.668L95.5425 108.318H94.4084L94.2552 106.916H95.0981L94.9448 106.536L93.6881 106.399L93.1057 104.982L93.6268 104.372L93.3356 104.159V103.748L93.6881 102.757L93.3356 102.407V99.3449L94.0866 98.4613L93.9333 97.9433L93.7187 97.989L92.7532 97.7148L91.8183 98.7203H90.3317L89.4427 99.482L88.5998 99.2535L88.1707 99.482L87.7262 100.427L83.8947 101.295L83.0977 100.411V100.122C83.0211 100.046 82.9598 99.939 82.8832 99.8172C82.7759 99.6496 82.6993 99.4972 82.6839 99.482L82.6686 99.4668L82.2855 98.1718L81.887 97.471L82.2242 97.014L81.6877 96.2827L81.4119 95.1249L79.3888 94.7897L78.1627 94.1346L77.6876 94.4241L77.8715 95.1249H77.1512L76.7374 95.8562H74.1626L73.4883 96.496H72.0476L71.5112 96.9378L71.3579 97.2273L71.4499 97.5472L71.4192 98.4156H70.6376L70.4537 98.3089L70.3617 98.7964L69.9633 99.6648H69.8866L69.9633 99.7257L71.1587 100.061L69.9939 101.005L69.5495 101.112V101.859L68.354 102.148L67.9096 103.138L68.1548 103.611L66.9593 104.007L66.377 105.606L66.6528 105.682H67.5417L67.4191 107.023L67.2505 107.495L67.3272 107.556L67.7563 107.297L68.7831 107.648L69.3042 109.202H70.6683L71.0514 110.207L70.0859 111.152L70.1625 111.228H71.174L71.4805 112.721L71.266 113.132L71.7564 113.62L72.63 115.859L73.3197 116.072V116.682L74.3159 117.2L75.3121 116.895V119.18L75.6186 119.698L74.9749 120.125L74.9289 121.207L76.8447 120.856L76.8907 120.338L78.1934 120.384L78.5919 121.252L79.2049 121.511L79.5881 119.394L80.7528 118.19L82.3621 118.023L82.4081 117.154L82.8832 116.941L83.4043 117.108L84.1859 116.682L85.2741 117.291L85.9637 117.246L86.3929 116.606L86.9139 116.773L87.8642 116.682L89.0749 118.358L89.688 118.266L90.255 119.089L91.2512 118.921L91.8183 117.764L92.508 117.809L92.7685 117.428L92.2934 117.124L92.2014 116.606L93.3662 116.225L93.7494 116.956L94.1785 116.91L95.0061 115.829L96.4621 116.118L96.4161 115.813Z" fill="#222222"/>
<path d="M4.42925 48.507L5.19555 49.1164L6.5749 48.2175L7.64773 48.9793L7.96958 48.8726L8.72056 46.9378L8.78186 45.9933L9.59415 45.5362V44.5765L9.94665 44.4698L9.99262 43.9671L10.4831 43.2511L12.5981 44.2718L15.5867 43.3882L14.9736 41.8799H16.1077L18.8818 40.3717L19.6634 41.4077L21.4412 41.103L22.1309 39.1682L22.6367 38.9854L22.8972 38.2541L24.5524 38.376L25.2115 39.3967L24.8436 39.8842L26.1157 40.4784L27.9548 39.7319L28.7518 39.8537L29.2269 39.3053L29.3495 38.376L29.8553 37.8732V37.4619L31.4492 36.9744L32.1542 35.7404L33.0124 35.6033L33.9014 34.1408L31.02 32.465L30.5756 30.2559L33.5489 30.1341L34.3305 29.2352L34.6064 27.1633L35.6945 26.8281H36.0777L36.4455 26.493L36.1849 24.4211L37.2424 23.8422L37.3497 23.3394L36.9819 23.3699L36.3995 22.3187L36.6907 21.3894L37.7635 21.4656L37.7482 21.1456L36.1543 20.2011L36.2309 19.287L35.8631 19.1194L35.1121 19.7898L35.2654 16.1944L33.7941 13.5436L36.0317 13.0104L36.001 11.9439L35.3727 11.7763L35.4953 10.4814L36.1083 10.2834L35.4493 8.18098L34.6523 8.08957L34.4991 6.8708L33.8094 6.0329L31.5565 6.45947L27.1272 12.2791L18.1768 14.7166L2.98859 20.9933L1.77783 20.4296L0.82761 21.0847L1.0575 21.2675L1.21076 22.0292L2.08435 23.964L1.88511 24.2992L1.97707 27.1176L2.39087 27.3614L2.51348 28.2754L2.28359 28.8391L2.62077 29.9512L2.91196 29.9817L3.24914 31.4899L3.83153 34.7654L4.27598 35.1462L3.77022 36.3498L3.21848 36.6697L3.14185 37.5381L3.4024 38.1018L3.01924 39.9451L0.245218 41.9256L0.521088 43.6167L0.0613044 44.2413L0 44.8507L1.08815 45.0792L1.94642 46.0238L2.86598 46.3742L4.27598 48.1871L4.42925 48.507Z" fill="#222222"/>
<path d="M36.9514 96.8616L36.323 96.4046L36.6296 95.6429L36.9821 95.5058V95.3687L37.4725 94.5764L38.6833 94.8202L38.9132 93.6319L39.6948 91.9256L41.2121 91.7733L41.2887 90.6459L40.9056 90.0518L41.4573 89.4272L41.7178 89.2139L41.3347 88.6654L41.9631 88.2389H42.6068L42.6221 88.1474L42.3922 87.6447L42.4382 86.8373H43.0665L43.1278 86.5326L42.5301 86.1365L43.0819 85.588H43.7409L43.5876 85.2072L43.9708 84.3083H44.7371L44.9516 84.0798L44.8137 83.6228L45.1202 82.2974L45.6107 82.1145L45.3501 80.6825L46.423 79.9817L47.1126 80.3169L48.0935 79.936L48.3847 79.7379L47.9402 79.2961L48.1395 77.1481L47.4958 76.3406L47.787 75.5027L47.7563 75.4722L47.2352 75.7008L46.6835 75.2285L45.8559 75.7312L45.2275 75.1066L44.7371 72.8214H45.3808L45.6413 72.5929L45.4574 71.9073L44.3999 71.0694L41.5033 70.5667L41.0895 70.8105L41.442 72.1511L39.5262 72.2273L38.9898 72.9738L38.3001 72.4406L37.6564 72.6081L36.415 71.755L35.5414 71.9988L34.9744 71.1913L34.7751 70.5515L33.2272 70.1249L33.1352 69.3022L33.4264 69.0585L33.2578 68.9214L33.1352 68.2663L31.7252 67.6417H30.3305V67.7026L29.7175 68.9366L28.4148 69.8964L27.6944 69.0128L26.6369 69.1651L26.9741 67.9768L25.1197 67.2913L24.6905 67.3217V68.5557L23.4185 68.9518L22.5295 72.0749L21.2728 72.5167L21.3494 72.989L19.6636 75.0152L19.1885 74.0707L18.2382 73.0499L16.9355 72.9738L16.7363 73.3394L16.8436 74.0859L16.4144 74.1316L16.2305 75.7465L14.4374 74.5886L13.0733 74.9238L12.9047 75.5484L12.1997 75.8074L11.8626 76.4625L11.3721 76.7824L11.8166 77.6051L12.1384 78.7477L11.8626 78.9L11.4641 82.0536L10.4832 83.6532L10.33 85.3138L9.27246 86.1974V86.6544L10.6825 86.6087L11.1729 86.9134L11.5714 86.7154L11.694 85.9537L11.4947 85.588L11.8626 85.2072L11.74 84.5673L11.2189 84.156L11.4181 83.7446L12.9661 83.6228L13.058 84.0798L13.3186 84.2017L13.4718 83.7294L13.9009 83.5618L14.2075 84.4302L14.7745 84.0493L15.5102 84.8872L15.1883 85.4509L15.2037 86.4412L16.2918 87.2638L16.6443 88.7111L17.3646 88.0713L18.4681 88.6807C18.4681 88.6807 19.3724 88.6654 19.449 88.6197C19.5103 88.574 21.2268 89.6404 21.2268 89.6404L22.5755 89.1682L23.1119 90.9658L24.6292 90.5088L25.0584 91.8037L24.8131 92.017L25.0737 92.4741L25.748 92.1694L25.9166 91.3772L26.453 91.1182L27.3879 91.8342L27.7864 91.7123L27.9397 91.0725L29.4876 91.0877L30.8516 92.8854L30.4838 93.053L30.3305 93.9823L29.8554 94.5612H29.365L27.6025 95.5362V96.3284L28.0163 96.3894L28.5527 97.2577L28.8133 97.0902L29.6409 97.0445L30.07 98.1718H30.4991L32.2157 100.198L32.5222 101.843L34.1008 102.864L34.6832 102.087L35.1583 101.965L35.4648 101.295L36.1545 100.564L36.6142 100.945L36.8748 100.427L37.8097 99.9238L38.3767 100.198L38.2082 99.7105L38.4074 99.6039L38.4687 98.7355L37.6258 98.507L36.9514 96.8616Z" fill="#222222"/>
<path d="M51.6488 103.595L51.8787 103.55L52.2159 102.59L52.0779 101.828L52.4458 100.945L54.4994 100.594V100.107L56.2773 99.3144H56.7524L56.4765 99.0402L56.6911 98.0804L56.2926 97.3187L56.4765 96.496L56.216 96.2066L56.4612 94.5155L57.58 94.8659L56.9976 93.9671L57.1355 93.114H59.2965L59.2505 92.5655L57.9938 91.7428L57.9172 90.1737L58.6375 89.3205L58.1164 89.092L57.7946 87.7666H58.5609L58.7908 86.9135H59.5264L59.9249 85.6795L59.4498 85.5728L59.3578 84.5826L59.9249 84.3236L60.4 83.3943L60.2774 83.1048L59.649 82.7849L58.6375 82.2974V81.3528H58.4536V82.1755H57.2275V81.5966L56.7524 81.4595L55.6336 81.429L55.373 81.1091H53.7791L53.6105 80.6216L52.8749 80.9567L49.9323 82.2212L48.982 81.5357L49.4572 80.2255L48.7981 80.0427L48.3384 80.3626L47.1429 80.8349L46.5145 80.5149L45.8862 80.9263L46.162 82.4345L45.549 82.6478L45.3191 83.6228L45.503 84.2169L44.9973 84.7654H44.2923L44.093 85.2377L44.3995 86.0451H43.2807L43.2348 86.0908L43.6332 86.3498L43.434 87.2943H42.8669L42.8516 87.599L43.0815 88.1322L42.9742 88.6959H42.1006L41.9474 88.8026L42.2999 89.3053L41.7634 89.7471L41.4569 90.0975L41.7328 90.5393L41.6102 92.1694L39.9703 92.337L39.3113 93.769L39.0047 95.3382L37.6561 95.064L37.3955 95.4753L37.4108 95.6734L37.702 96.0085H38.1771L40.1082 96.8312L40.8439 96.8769V97.3339L41.9014 98.1261L42.5451 98.1871L42.821 99.1621L43.0815 98.964L43.7252 99.1316L43.9857 99.4515L44.3536 99.1926L46.3306 99.0707L47.0203 98.9793L47.4954 97.9586L48.1391 98.4156L47.7253 99.2992L48.2617 99.6648L48.2157 100.381C48.2157 100.381 47.7866 100.533 47.71 100.548C47.6487 100.564 47.2502 101.021 47.2502 101.021C47.2502 101.021 46.1007 101.295 46.0088 101.295C45.9168 101.295 46.8977 102.316 46.8977 102.316L47.4188 102.224L48.5529 104.403L49.0434 104.494L49.5031 105.21L50.4534 105.225L50.7599 104.692L51.281 104.494L51.8021 104.54L51.8634 104.022H51.5109L51.6488 103.595Z" fill="#222222"/>
</svg>
