<svg width="244" height="36" viewBox="0 0 244 36" fill="none" xmlns="http://www.w3.org/2000/svg">
<path d="M19.5751 14.1912C26.555 14.1912 30.8581 18.1043 30.8581 24.9914C30.8581 31.8783 26.5548 36 19.5751 36H1.46915V28.3825H19.4695C21.8316 28.3825 23.0385 26.713 23.0385 24.9914C23.0385 23.2696 21.8314 21.6001 19.4698 21.6001H11.2833C4.30339 21.6001 0 17.5823 0 10.9044C0 4.06963 4.30339 0 11.2833 0H28.3394V7.61751H11.3878C9.02627 7.61751 7.81916 9.23489 7.81916 10.9044C7.81916 12.5739 9.02627 14.1915 11.3878 14.1915L19.5751 14.1912ZM55.744 0H65.6103L51.7032 17.7391L65.6103 36H55.3767L43.9886 20.9739V36H35.5917V0H43.9886V15.0782L55.744 0ZM89.4885 0H78.8351L66.1351 35.9997H74.8991L77.3133 28.6435H91.063L93.477 36H102.189L89.4888 0H89.4885ZM79.6751 21.3391L84.136 7.66961L88.649 21.3391H79.6751ZM128.376 22.4871V0H136.773V36H128.061L113.682 13.4608V36H105.285V0H113.997L128.376 22.4871ZM161.386 14.1912C168.366 14.1912 172.669 18.1043 172.669 24.9914C172.669 31.8783 168.366 36 161.386 36H143.28V28.3825H161.281C163.643 28.3825 164.85 26.713 164.85 24.9914C164.85 23.2696 163.643 21.6001 161.281 21.6001H153.094C146.115 21.6001 141.811 17.5826 141.811 10.9044C141.811 4.06963 146.115 0 153.094 0H170.151V7.61751H153.2C150.838 7.61751 149.631 9.23489 149.631 10.9044C149.631 12.5739 150.838 14.1915 153.199 14.1915H161.386L161.386 14.1912ZM197.555 0H207.422L193.515 17.7391L207.422 36H197.188L185.8 20.9739V36H177.403V0H185.8V15.0782L197.555 0ZM231.3 0H220.647L207.947 35.9997H216.711L219.125 28.6435H232.874L235.288 36H244L231.3 0H231.3ZM221.486 21.3391L225.947 7.66961L230.46 21.3391H221.486Z" fill="#143275"/>
</svg>
