<svg width="196" height="42" viewBox="0 0 196 42" fill="none" xmlns="http://www.w3.org/2000/svg">
<g clip-path="url(#clip0_2047_5550)">
<path d="M180.743 27.0174L173.826 16.2065C173.623 15.7986 173.522 15.5946 173.623 15.3906C173.623 14.7787 173.826 14.5747 174.539 14.5747H178.81C179.623 14.5747 179.827 14.6767 180.438 15.6966L184.303 22.2239L188.167 15.6966C188.779 14.6767 188.879 14.5747 189.998 14.5747H194.067C194.779 14.5747 194.982 14.7787 194.982 15.3906C194.982 15.5946 194.88 15.9005 194.678 16.2065L187.659 27.0174L195.796 39.6643C195.898 39.8682 196 40.1742 196 40.2762C196 40.8881 195.796 41.0921 195.084 41.0921H190.71C189.998 41.0921 189.795 40.8881 189.185 39.9702L184.201 32.3209L179.217 39.9702C178.607 40.9901 178.404 41.0921 177.59 41.0921H173.318C172.606 41.0921 172.402 40.8881 172.402 40.2762C172.402 40.0722 172.504 39.7663 172.708 39.4603L180.743 27.0174Z" fill="#EBB700"/>
<path fill-rule="evenodd" clip-rule="evenodd" d="M169.352 38.6444C169.352 40.3782 164.063 41.5001 160.502 41.5001C150.331 41.5001 146.975 37.0125 147.076 27.6294C147.076 18.2464 151.552 13.8608 158.977 13.8608C166.911 13.8608 170.268 18.4503 170.268 26.6095C170.268 29.2613 169.758 30.2812 168.029 30.2812H153.688C153.688 34.0549 155.011 36.2986 160.706 36.2986C163.762 36.2986 165.526 35.751 166.59 35.4211C167.049 35.2786 167.378 35.1767 167.623 35.1767C168.437 35.1767 169.352 38.0325 169.352 38.6444ZM158.977 19.2663C155.722 19.2663 153.586 20.7961 153.586 25.7936H163.859V25.1817C163.859 21.3061 162.13 19.2663 158.977 19.2663Z" fill="#EBB700"/>
<path d="M120.53 40.9901C119.411 40.9901 119.004 40.4802 119.004 39.3583V23.5499C118.801 21 117.885 19.1643 114.224 19.1643C112.393 19.1643 110.765 19.7762 109.443 20.4901V39.3583C109.443 40.4802 109.036 40.9901 107.917 40.9901H104.561C103.442 40.9901 103.035 40.4802 103.035 39.3583V17.6343C105.171 15.7986 109.647 13.9626 114.529 13.9626C118.394 13.9626 121.14 14.7787 122.869 16.0025C124.903 14.9826 127.344 13.9626 130.396 13.9626C139.855 13.9626 141.381 18.1444 141.381 22.4279V39.3583C141.381 40.4802 140.973 40.9901 139.855 40.9901H136.499C135.38 40.9901 134.872 40.4802 134.872 39.3583V23.9578C134.872 21.102 133.956 19.1643 129.988 19.1643C128.158 19.1643 126.531 19.7762 125.209 20.4901C125.209 20.4901 125.412 21.306 125.412 23.2439V39.3583C125.412 40.4802 125.005 40.9901 123.886 40.9901H120.53Z" fill="#EBB700"/>
<path d="M92.9657 3.25366C94.8982 3.25366 96.8307 4.88554 96.8307 7.02737C96.8307 9.16914 94.9999 10.903 92.9657 10.801C90.7279 10.801 89.1006 9.16914 89.1006 7.02737C89.1006 4.78358 90.7279 3.25366 92.9657 3.25366Z" fill="#EBB700"/>
<path d="M91.3381 41.0921C90.2192 41.0921 89.8125 40.5822 89.8125 39.4603V16.2065C89.8125 15.0846 90.2192 14.5747 91.3381 14.5747H94.6946C95.8135 14.5747 96.2203 15.0846 96.2203 16.2065V39.4603C96.2203 40.5822 95.8135 41.0921 94.6946 41.0921H91.3381Z" fill="#EBB700"/>
<path fill-rule="evenodd" clip-rule="evenodd" d="M81.3705 1.01001C82.591 1.01001 82.9978 1.51996 82.9978 2.64182H82.8961V39.3583C79.743 40.5822 74.5556 41.5001 71.4026 41.5001C63.7742 41.5001 59.2988 38.4403 59.2988 27.7314C59.2988 17.5324 63.9776 13.9627 70.894 13.9627C74.6575 13.9627 76.4883 15.5946 76.4883 15.5946V2.64182C76.4883 1.418 76.9969 1.01001 78.1157 1.01001H81.3705ZM72.0129 36.4006C74.1489 36.4006 76.4883 35.6866 76.4883 35.6866H76.59V20.5921C76.59 20.5921 74.5557 19.2663 71.8094 19.2663C67.5375 19.2663 65.9101 20.8981 65.9101 27.8334C65.9101 35.7886 68.3512 36.4006 72.0129 36.4006Z" fill="#EBB700"/>
<path d="M34.0736 14.5747C35.1925 14.5747 35.4976 15.0846 35.4976 16.2065V30.4851C35.4976 33.3409 36.2096 36.4005 40.3798 36.4005C43.4312 36.4005 44.9568 35.1767 45.8723 33.5449V16.2065C45.8723 15.0846 46.3809 14.5747 47.398 14.5747H50.7545C51.975 14.5747 52.3818 15.0846 52.3818 16.2065V33.9528C52.3818 35.6866 53.0939 36.4005 54.3143 36.4005C54.4824 36.4005 54.712 36.3695 54.9185 36.3419C55.087 36.3192 55.2401 36.2986 55.3315 36.2986C56.0435 36.2986 56.4504 36.6046 56.5521 37.3184L56.8572 39.8682C56.8572 40.5822 56.1453 41.5 52.8904 41.5C50.4493 41.5 48.4151 40.3782 47.8048 37.9304C46.8894 39.2563 43.838 41.5 39.3626 41.5C32.1411 41.5 29.1914 37.9305 29.1914 32.0151V16.2065C29.1914 15.0846 29.5982 14.5747 30.7171 14.5747H34.0736Z" fill="#EBB700"/>
<path fill-rule="evenodd" clip-rule="evenodd" d="M11.4935 41.5C8.03528 41.5 2.74626 40.3781 0 39.3583H0.203407V3.45774C0.203407 2.5398 0.305126 2.02985 1.42397 1.72383C5.18735 0.5 5.49247 0.5 5.79759 0.5C6.30616 0.5 6.5096 0.805959 6.5096 1.62187V15.5945C6.5096 15.5945 8.34041 13.9626 12.1038 13.9626C18.9185 13.9626 23.699 17.5323 23.699 27.7313C23.699 38.4402 19.122 41.5 11.4935 41.5ZM10.9849 36.2985C14.6466 36.2985 17.0877 35.7886 17.0877 27.7313C17.0877 20.898 15.3585 19.1642 11.1884 19.0621C8.34044 19.0621 6.40787 20.3881 6.40787 20.3881V35.5846C6.40787 35.5846 8.74725 36.2985 10.9849 36.2985Z" fill="#EBB700"/>
</g>
<defs>
<clipPath id="clip0_2047_5550">
<rect width="196" height="41" fill="white" transform="translate(0 0.5)"/>
</clipPath>
</defs>
</svg>
