<svg width="21" height="28" viewBox="0 0 21 28" fill="none" xmlns="http://www.w3.org/2000/svg">
<g clip-path="url(#clip0_2559_484)">
<path d="M14.1958 27.5C14.0622 27.5 13.9323 27.4926 13.8061 27.4777L13.6724 27.4554C13.6539 27.4554 13.6353 27.4516 13.613 27.4479C13.4831 27.4256 13.3346 27.3958 13.1713 27.3512C12.8112 27.2582 12.3249 27.076 11.6418 26.7821C10.9291 26.4734 10.1384 25.9899 9.22519 25.298C8.34911 24.636 7.39878 23.7358 6.38906 22.6274C5.37562 21.5078 4.35476 20.0647 3.35246 18.3388C2.56176 17.0109 1.92326 15.7389 1.45924 14.5672C0.998921 13.403 0.653685 12.3243 0.430952 11.3647C0.208219 10.3939 0.070867 9.50867 0.0263204 8.73501C-0.0182261 7.97251 -0.0108017 7.29928 0.0411693 6.74135C0.0968525 6.14994 0.182233 5.68128 0.301024 5.31305C0.371556 5.09732 0.412391 4.97086 0.423527 4.92994L0.482923 4.75512C0.623987 4.41293 0.828159 4.08561 1.08801 3.78061C1.36272 3.45701 1.67083 3.20036 2.01236 3.01811L5.66889 0.868224C6.27398 0.51115 6.94589 0.410723 7.60295 0.581821C8.11895 0.715724 8.54585 0.994688 8.87253 1.40384C9.10269 1.69396 9.28087 2.025 9.39595 2.38951L9.42194 2.47878L10.621 7.58568C10.7769 8.16964 10.7027 8.828 10.4094 9.41568C10.1458 9.94757 9.75975 10.3642 9.26231 10.658L8.52358 11.0932C8.531 11.1415 8.54214 11.1862 8.55328 11.2382C8.62381 11.5693 8.76116 11.997 8.96533 12.5215C9.16579 13.0385 9.49989 13.6857 9.9565 14.4445C10.4094 15.2367 10.8177 15.8542 11.1778 16.2931C11.5342 16.732 11.8497 17.0705 12.0836 17.2788C12.117 17.3085 12.1504 17.3383 12.1801 17.3606L13.2455 16.7245C13.9026 16.3898 14.6227 16.3117 15.3318 16.4977C15.651 16.5795 15.9369 16.7022 16.1819 16.8584L16.271 16.8808L16.6088 17.1895L20.2171 20.8235C20.915 21.5562 21.0263 22.3187 20.9966 22.832L20.9892 22.9101C20.8853 23.7544 20.4324 24.4351 19.7122 24.8591L16.0631 26.9867C15.7364 27.195 15.3615 27.3401 14.9457 27.4219C14.6933 27.4702 14.4409 27.4963 14.1958 27.4963V27.5ZM1.91584 5.38372C1.89728 5.44323 1.85644 5.57714 1.78962 5.78543C1.70795 6.04208 1.64485 6.41403 1.59659 6.88641C1.54833 7.36623 1.54462 7.95763 1.58545 8.64202C1.62629 9.33013 1.74879 10.1261 1.95296 11.0114C2.15713 11.8966 2.48009 12.8972 2.91071 13.9944C3.34133 15.088 3.94271 16.2856 4.69629 17.5466C5.64661 19.1869 6.60065 20.5408 7.54356 21.5785C8.48646 22.6163 9.36625 23.4494 10.1644 24.0557C10.9736 24.6694 11.6604 25.0935 12.2581 25.3501C12.852 25.6068 13.2901 25.7704 13.5648 25.8448C13.6798 25.8746 13.7764 25.8969 13.8506 25.908L13.8952 25.9155L13.8358 26.3246L13.936 25.9229L14.0102 25.9378C14.2144 25.9601 14.426 25.9452 14.6487 25.9006C14.8789 25.856 15.0756 25.7779 15.239 25.6737L15.2687 25.6551L18.9289 23.5201C19.2333 23.3416 19.4041 23.0886 19.4449 22.7464V22.7204C19.4598 22.4526 19.3447 22.1736 19.0997 21.9096L15.4988 18.283L15.4023 18.2123C15.2872 18.1268 15.135 18.0599 14.9494 18.0115C14.6116 17.9222 14.2961 17.9557 13.9805 18.1082L12.1875 19.1794L11.7718 18.9749C11.5973 18.8893 11.356 18.7108 11.0553 18.4467C10.7546 18.1826 10.3945 17.7883 9.98248 17.2825C9.57043 16.7766 9.11011 16.0885 8.62381 15.233C8.13008 14.4147 7.75886 13.6857 7.52499 13.0869C7.28741 12.4768 7.12779 11.9784 7.04241 11.573C6.97187 11.2606 6.92733 10.9667 6.9199 10.7064L6.90134 10.2414L8.48275 9.31154C8.72033 9.17391 8.89851 8.9805 9.02473 8.72013C9.15094 8.46721 9.18064 8.20684 9.11753 7.96507L7.9222 2.86561C7.86281 2.68335 7.77742 2.51969 7.66235 2.37463C7.54727 2.22957 7.40249 2.13658 7.21688 2.08823C6.96445 2.02128 6.71202 2.06219 6.4633 2.21097L2.76965 4.38317C2.59889 4.47616 2.43555 4.61006 2.28335 4.7886C2.13486 4.96342 2.01978 5.14939 1.93811 5.33165L1.91955 5.38372H1.91584Z" fill="#FCBF00"/>
</g>
<defs>
<clipPath id="clip0_2559_484">
<rect width="21" height="27" fill="white" transform="translate(0 0.5)"/>
</clipPath>
</defs>
</svg>
