<svg width="286" height="54" viewBox="0 0 286 54" fill="none" xmlns="http://www.w3.org/2000/svg">
<g clip-path="url(#clip0_2031_3492)">
<path d="M115.786 0H125.787C128.348 0 130.667 1.02732 132.365 2.63415C134.009 4.29366 135.061 6.55902 135.061 9.06146V17.438C135.061 19.9405 134.036 22.2322 132.365 23.8654C130.667 25.4722 128.348 26.5259 125.787 26.5259H115.786C113.225 26.5259 110.879 25.4722 109.208 23.8654C107.51 22.2059 106.485 19.9405 106.485 17.438V9.06146C106.485 6.55902 107.536 4.26732 109.208 2.63415C110.879 1.02732 113.225 0 115.786 0ZM125.787 7.8761H115.786C115.435 7.8761 115.139 8.0078 114.923 8.21854C114.707 8.42927 114.573 8.71902 114.573 9.06146V17.438C114.573 17.7805 114.707 18.0702 114.923 18.281C115.139 18.4917 115.435 18.6234 115.786 18.6234H125.787C126.138 18.6234 126.434 18.4917 126.65 18.281C126.866 18.0702 127 17.7805 127 17.438V9.06146C127 8.71902 126.866 8.42927 126.65 8.21854C126.434 8.0078 126.138 7.8761 125.787 7.8761Z" fill="white"/>
<path d="M103.439 16.042V17.4117C103.439 19.9141 102.414 22.1532 100.716 23.7863V23.839C99.0176 25.4459 96.6992 26.4995 94.1921 26.4995H84.1367C81.5756 26.4995 79.2303 25.4459 77.5858 23.839C75.8875 22.1795 74.863 19.9141 74.863 17.4117V9.03512C74.863 6.53268 75.9144 4.24098 77.5858 2.6078C79.2303 1.02732 81.5756 0 84.1367 0H94.1921C96.7531 0 99.0446 1.00098 100.716 2.63415C102.414 4.29366 103.439 6.55902 103.439 9.06146V11.0107H95.3513V9.06146C95.3513 8.71902 95.2165 8.42927 95.0008 8.21854C94.7852 8.0078 94.4886 7.8761 94.1651 7.8761H84.1097C83.7593 7.8761 83.4627 8.0078 83.247 8.21854C83.0314 8.42927 82.8966 8.71902 82.8966 9.06146V17.438C82.8966 17.7805 83.0314 18.0702 83.247 18.281C83.4627 18.4917 83.7593 18.6234 84.1097 18.6234H94.1651C94.4617 18.6234 94.7852 18.4917 95.0008 18.281C95.2165 18.0702 95.3513 17.7805 95.3513 17.438V16.0683H103.439V16.042Z" fill="white"/>
<path d="M240.09 0H250.092C252.653 0 254.998 1.02732 256.669 2.63415C258.368 4.29366 259.392 6.55902 259.392 9.06146V17.438C259.392 19.9405 258.341 22.2322 256.669 23.8654C254.971 25.4722 252.653 26.5259 250.092 26.5259H240.09C237.529 26.5259 235.184 25.4722 233.512 23.8654C231.868 22.2059 230.817 19.9405 230.817 17.438V9.06146C230.817 6.55902 231.868 4.26732 233.512 2.63415C235.211 1.02732 237.529 0 240.09 0ZM250.092 7.8761H240.09C239.74 7.8761 239.443 8.0078 239.227 8.21854C239.012 8.42927 238.877 8.71902 238.877 9.06146V17.438C238.877 17.7805 239.012 18.0702 239.227 18.281C239.443 18.4917 239.74 18.6234 240.09 18.6234H250.092C250.442 18.6234 250.739 18.4917 250.954 18.281C251.17 18.0702 251.305 17.7805 251.305 17.438V9.06146C251.305 8.71902 251.17 8.42927 250.954 8.21854C250.739 8.0078 250.442 7.8761 250.092 7.8761Z" fill="white"/>
<path d="M51.9485 26.5259L38.4155 12.3541V26.5259H30.355V0H37.0676L50.6276 14.1717V0H58.6611V26.5259H51.9485Z" fill="white"/>
<path d="M159.808 26.5259L146.302 12.3541V26.5259H138.269V0H144.981L158.487 14.1717V0H166.521V26.5259H159.808Z" fill="white"/>
<path d="M71.4124 0H63.3519V26.5259H71.4124V0Z" fill="white"/>
<path d="M178.706 7.40195H169.163V0H196.283V7.40195H186.74V26.5259H178.706V7.40195Z" fill="white"/>
<path d="M199.141 26.5259V0H218.847C221.543 0 223.834 0.921951 225.425 2.50244C227.015 4.05659 227.932 6.84878 227.932 9.48293C227.932 11.8537 227.15 14.4351 225.775 15.9629C224.859 16.9376 223.699 17.6488 222.352 18.1493L228.417 26.5259H219.144L213.482 18.7024H207.201V26.5259H199.141ZM207.201 11.3532H219.898V7.42829H207.201V11.3532Z" fill="white"/>
<path d="M284.517 26.5259H262.789V0H270.849V19.1239H286V26.5259H284.517Z" fill="white"/>
<path fill-rule="evenodd" clip-rule="evenodd" d="M3.50457 11.3532L13.1017 22.3112L22.7528 11.3532H17.3881V0H26.2573V15.9102C25.7451 22.2059 18.736 27.2371 13.1017 27.2371C7.46743 27.2371 0.512207 22.2059 0 15.9102V0H8.86926V11.3268H3.50457V11.3532Z" fill="white"/>
<path d="M26.2843 31.7415H0V39.6176H26.2843V31.7415Z" fill="#F08E44"/>
<path d="M32.0534 44.7542H30.355V53.842H32.2151V47.4937C32.2151 47.4937 32.3768 48.0732 32.7543 48.4683L34.0483 50.1805H35.9084L37.2024 48.4683C37.5528 48.0732 37.7415 47.4937 37.7415 47.4937V53.842H39.6017V44.7542H37.9572L35.0457 48.5737H34.9379L32.0803 44.7542H32.0534Z" fill="#F08E44"/>
<path d="M43.5107 53.842L44.2655 52.0244H49.118L49.8728 53.842H51.8677L48.0666 44.7542H45.3169L41.5157 53.842H43.5107ZM44.9125 50.3385L46.6109 46.3873H46.7996L48.444 50.3385H44.9394H44.9125Z" fill="#F08E44"/>
<path d="M57.5559 52.2878C55.8575 52.2878 54.6983 51.0234 54.6983 49.2585C54.6983 47.4937 55.8575 46.282 57.5559 46.282C58.769 46.282 59.7664 46.9668 60.1978 48.0468H62.1927C61.7344 45.9922 59.9012 44.5698 57.5828 44.5698C54.7792 44.5698 52.7303 46.5717 52.7303 49.2585C52.7303 51.9454 54.7792 54 57.5828 54C59.9282 54 61.7344 52.5776 62.1927 50.4439H60.1978C59.7934 51.5239 58.796 52.2615 57.5559 52.2615" fill="#F08E44"/>
<path d="M66.452 44.7542H64.5649V53.842H66.452V50.1278H70.8193V53.842H72.6524V44.7542H70.8193V48.4683H66.452V44.7542Z" fill="#F08E44"/>
<path d="M77.2624 44.7542H75.4562V53.842H77.2624V44.7542Z" fill="#F08E44"/>
<path d="M87.0752 53.842H88.7736V44.7542H86.9134V51.0234L81.7105 44.7542H80.066V53.842H81.8722V47.5463L87.0752 53.842Z" fill="#F08E44"/>
<path d="M97.5079 46.4137V44.7542H91.3615V53.842H97.5079V52.1824H93.2216V50.1278H97.3731V48.4683H93.2216V46.4137H97.5079Z" fill="#F08E44"/>
<path d="M110.825 52.2878C109.127 52.2878 107.968 51.0234 107.968 49.2585C107.968 47.4937 109.127 46.282 110.825 46.282C112.065 46.282 113.063 46.9668 113.467 48.0468H115.516C115.004 45.9922 113.171 44.5698 110.825 44.5698C108.022 44.5698 106.027 46.5717 106.027 49.2585C106.027 51.9454 108.022 54 110.825 54C113.171 54 114.977 52.5776 115.516 50.4439H113.467C113.063 51.5239 112.065 52.2615 110.825 52.2615" fill="#F08E44"/>
<path d="M122.121 44.5698C119.317 44.5698 117.322 46.5717 117.322 49.2585C117.322 51.9454 119.317 54 122.121 54C124.924 54 126.919 51.9981 126.919 49.2585C126.919 46.519 124.871 44.5698 122.121 44.5698ZM122.121 52.2878C120.422 52.2878 119.263 51.0234 119.263 49.2585C119.263 47.4937 120.422 46.282 122.121 46.282C123.819 46.282 124.978 47.5464 124.978 49.2585C124.978 50.9707 123.738 52.2878 122.121 52.2878Z" fill="#F08E44"/>
<path d="M136.085 53.842H137.73V44.7542H135.923V51.0234L130.774 44.7542H129.076V53.842H130.936V47.5463L136.085 53.842Z" fill="#F08E44"/>
<path d="M139.778 46.4137H142.879V53.842H144.739V46.4137H147.839V44.7542H139.778V46.4137Z" fill="#F08E44"/>
<path d="M149.834 53.842H151.694V50.1278H153.042L155.441 53.842H157.49L155.441 50.5229C155.441 50.5229 155.199 50.2332 155.091 50.0751C156.547 49.9698 157.49 48.9424 157.49 47.4937C157.49 45.8342 156.385 44.7542 154.74 44.7542H149.834V53.842ZM151.721 48.4683V46.4137H154.767C155.307 46.4137 155.711 46.7561 155.711 47.2566V47.5463C155.711 48.1259 155.307 48.4683 154.767 48.4683H151.721Z" fill="#F08E44"/>
<path d="M163.879 44.5698C161.129 44.5698 159.081 46.5717 159.081 49.2585C159.081 51.9454 161.129 54 163.879 54C166.629 54 168.678 51.9981 168.678 49.2585C168.678 46.519 166.629 44.5698 163.879 44.5698ZM163.879 52.2878C162.181 52.2878 161.022 51.0234 161.022 49.2585C161.022 47.4937 162.181 46.282 163.879 46.282C165.578 46.282 166.737 47.5464 166.737 49.2585C166.737 50.9707 165.497 52.2878 163.879 52.2878Z" fill="#F08E44"/>
<path d="M170.942 53.842H176.577V52.1824H172.775V44.7542H170.942V53.842Z" fill="#F08E44"/>
<path d="M187.387 44.7542H185.688V53.842H187.548V47.4937H187.602C187.602 47.4937 187.791 48.0732 188.061 48.4683L189.409 50.1805H191.215L192.509 48.4683C192.859 48.0732 193.048 47.4937 193.048 47.4937H193.102V53.842H194.908V44.7542H193.264L190.406 48.5737H190.244L187.387 44.7542Z" fill="#F08E44"/>
<path d="M198.844 53.842L199.599 52.0244H204.451L205.206 53.842H207.201L203.454 44.7542H200.65L196.849 53.842H198.844ZM200.327 50.3385L201.971 46.3873H202.133L203.831 50.3385H200.327Z" fill="#F08E44"/>
<path d="M213.24 44.7542H209.196V53.842H213.24C215.989 53.842 218.038 51.8927 218.038 49.2849C218.038 46.6771 215.989 44.7805 213.24 44.7805M211.029 46.4137H213.24C214.884 46.4137 216.097 47.599 216.097 49.2849C216.097 50.9707 214.857 52.2088 213.24 52.2088H211.029V46.44V46.4137Z" fill="#F08E44"/>
<path d="M226.449 46.4137V44.7542H220.303V53.842H226.449V52.1824H222.19V50.1278H226.395V48.4683H222.19V46.4137H226.449Z" fill="#F08E44"/>
<path d="M239.901 52.3405C238.311 52.3405 237.259 51.84 237.259 51.0761H235.453C235.453 52.841 237.206 54 239.901 54C242.759 54 244.349 52.9727 244.349 51.0234C244.349 49.2058 243.002 48.3366 239.955 48.3366C238.203 48.3366 237.502 48.0995 237.502 47.4146C237.502 46.6244 238.311 46.1502 239.901 46.1502C241.303 46.1502 242.301 46.6771 242.301 47.4673H244.107C244.107 45.7024 242.408 44.5434 239.901 44.5434C237.098 44.5434 235.642 45.518 235.642 47.4146C235.642 49.3112 236.936 49.9961 239.794 49.9961C241.654 49.9961 242.489 50.2858 242.489 51.0234C242.489 51.8927 241.546 52.3405 239.928 52.3405" fill="#F08E44"/>
<path d="M248.501 44.7542H246.641V53.842H248.501V44.7542Z" fill="#F08E44"/>
<path d="M252.949 44.7542H251.251V53.842H253.111V47.4937C253.111 47.4937 253.273 48.0732 253.65 48.4683L254.944 50.1805H256.804L258.098 48.4683C258.449 48.0732 258.637 47.4937 258.637 47.4937V53.842H260.498V44.7542H258.853L255.942 48.5737H255.834L252.976 44.7542H252.949Z" fill="#F08E44"/>
<path d="M265.107 50.1278H267.561C269.259 50.1278 270.364 49.0478 270.364 47.4937C270.364 45.8342 269.259 44.7542 267.561 44.7542H263.22V53.842H265.08V50.1278H265.107ZM265.107 46.4137H267.561C268.154 46.4137 268.504 46.7561 268.504 47.2566V47.5463C268.504 48.1259 268.154 48.4683 267.561 48.4683H265.107V46.4137Z" fill="#F08E44"/>
<path d="M272.063 53.842H277.751V52.1824H273.95V44.7542H272.063V53.842Z" fill="#F08E44"/>
<path d="M286 46.4137V44.7542H279.854V53.842H286V52.1824H281.66V50.1278H285.892V48.4683H281.66V46.4137H286Z" fill="#F08E44"/>
</g>
<defs>
<clipPath id="clip0_2031_3492">
<rect width="286" height="54" fill="white"/>
</clipPath>
</defs>
</svg>
