<svg width="194" height="108" viewBox="0 0 194 108" fill="none" xmlns="http://www.w3.org/2000/svg">
<g id="unisystems-3 1">
<path id="Vector" fill-rule="evenodd" clip-rule="evenodd" d="M103.5 2.90002C103.3 2.90002 103.1 3.10002 103.1 3.30002C103.1 3.60002 103.2 3.80002 103.4 3.80002L122.7 5.90002C122.9 5.90002 123.1 5.70002 123.1 5.50002C123.1 5.20002 123 5.00002 122.8 5.00002L103.5 2.90002Z" fill="white"/>
<path id="Vector_2" fill-rule="evenodd" clip-rule="evenodd" d="M121.1 4.09998C120.9 4.09998 120.7 4.19998 120.7 4.49998L120.5 6.19998C120.5 6.39998 120.6 6.59998 120.9 6.59998L142.3 8.99998C142.5 8.99998 142.7 8.89998 142.7 8.59998L142.9 6.89998C142.9 6.69998 142.8 6.49998 142.5 6.49998L121.1 4.09998Z" fill="black" stroke="white" stroke-width="1.1" stroke-linecap="round" stroke-linejoin="round"/>
<path id="Vector_3" fill-rule="evenodd" clip-rule="evenodd" d="M92.5 37.9999C92.5 37.9999 92.3 37.7999 92 37.8999C91.7 37.8999 91.5 37.8999 91.5 38.0999L91.8 44.1999C91.8 44.1999 92 44.3999 92.3 44.2999C92.6 44.2999 92.8 44.2999 92.8 44.0999L92.5 37.9999Z" fill="black" stroke="white" stroke-width="1.1" stroke-linecap="round" stroke-linejoin="round"/>
<path id="Vector_4" fill-rule="evenodd" clip-rule="evenodd" d="M91.3999 17.7001C91.3999 17.5001 91.2999 17.3 91.0999 17.3H90.0999C89.9999 17.3 89.8999 17.5 89.8999 17.8L90.7999 39.3C90.7999 39.5 90.8999 39.7001 91.0999 39.7001H92.0999C92.1999 39.7001 92.2999 39.5 92.2999 39.2001L91.3999 17.7001Z" fill="black"/>
<path id="Vector_5" fill-rule="evenodd" clip-rule="evenodd" d="M96.0001 57.7999L92.7001 20.2999C92.7001 20.2999 91.2001 19.7999 89.8001 19.4C89.3001 19.2999 88.9001 18.9 88.8001 18.4C88.6001 17.9 88.8001 17.4 89.0001 17C91.6001 13.6 97.3001 6.19995 100.3 2.19995C100.7 1.69995 101.3 1.49995 101.9 1.59995C102.5 1.69995 103 2.19995 103.1 2.79995C104 6.69995 105.5 12.8 105.5 12.8L99.7001 58.0999L96.1001 57.9L96.0001 57.7999Z" fill="black" stroke="white" stroke-width="1.1" stroke-linecap="round" stroke-linejoin="round"/>
<path id="Vector_6" fill-rule="evenodd" clip-rule="evenodd" d="M97.4001 52.8C97.5001 53 97.8001 53.1 98.1001 52.9C98.3001 52.8 98.4001 52.5 98.2001 52.2C98.2001 52.2 98.2001 51.9 98.1001 51.3C97.6001 48.2 95.7001 45.6 93.0001 44.1C92.9001 43.9 92.6001 43.8 92.3001 44C92.1001 44.1 92.0001 44.4 92.2001 44.7C94.9001 46.2 96.8001 48.8 97.3001 51.9C97.3001 52.4 97.5001 52.8 97.5001 52.8H97.4001Z" fill="white"/>
<path id="Vector_7" d="M96.9001 52.8C96.9001 53.4 97.4001 53.8 98.0001 53.7C98.6001 53.6 99.0001 53.2 98.9001 52.6C98.9001 52 98.4001 51.6 97.8001 51.7C97.2001 51.8 96.8001 52.2 96.9001 52.8Z" fill="black" stroke="white" stroke-width="1.1" stroke-linecap="round" stroke-linejoin="round"/>
<path id="Vector_8" fill-rule="evenodd" clip-rule="evenodd" d="M91.5 51.4001C91.5 51.6001 91.7 51.7 91.9 51.8C92.2 51.8 92.4 51.7 92.4 51.5L93 44.2001C93 44.0001 92.8 43.9 92.6 43.8C92.3 43.8 92.1 43.9 92.1 44.1L91.5 51.4001Z" fill="black" stroke="white" stroke-width="1.1" stroke-linecap="round" stroke-linejoin="round"/>
<path id="Vector_9" d="M91.3 51.8001C91.7 52.2001 92.4 52.1001 92.7 51.8001C93.1 51.4001 93 50.7001 92.7 50.4001C92.3 50.0001 91.6 50.1001 91.3 50.4001C90.9 50.8001 91 51.5001 91.3 51.8001Z" fill="black" stroke="white" stroke-width="1.1" stroke-linecap="round" stroke-linejoin="round"/>
<path id="Vector_10" d="M91.8 45.1C92.2 45.5 92.9 45.4 93.2 45.1C93.6 44.7 93.5 44 93.2 43.7C92.8 43.3 92.1 43.4 91.8 43.7C91.4 44.1 91.5 44.8 91.8 45.1Z" fill="black" stroke="white" stroke-width="1.1" stroke-linecap="round" stroke-linejoin="round"/>
<g id="Vector_11">
<path d="M89.6001 55V54.5V53.2C89.8001 52.2 89.9001 50.8 90.1001 49.4L89.6001 54.9V55ZM89.6001 55C89.6001 55.2 89.7001 55.5 90.0001 55.6L89.6001 55ZM89.6001 55L90.0001 55.6L89.6001 55ZM90.0001 55.6L95.0001 57.3C95.1001 58 95.5001 58.6 96.0001 59C97.2001 60 99.0001 59.8 100 58.6C101 57.4 100.8 55.6 99.6001 54.6C99.2001 54.3 98.8001 54.1 98.3001 54M90.0001 55.6L98.3001 54L90.0001 55.6ZM98.3001 54C96.1001 52.5 94.8001 50.6 93.7001 48.7C93.3001 48 92.5001 47.6 91.6001 47.8C90.8001 48 90.2001 48.7 90.1001 49.5L98.3001 54Z" fill="black"/>
<path d="M89.6001 55H90.1001M89.6001 55V54.5V53.2C89.8001 52.2 89.9001 50.8 90.1001 49.4L89.6001 54.9V55ZM89.6001 55C89.6001 55.2 89.7001 55.5 90.0001 55.6M89.6001 55L90.0001 55.6M90.0001 55.6L95.0001 57.3C95.1001 58 95.5001 58.6 96.0001 59C97.2001 60 99.0001 59.8 100 58.6C101 57.4 100.8 55.6 99.6001 54.6C99.2001 54.3 98.8001 54.1 98.3001 54M90.0001 55.6L98.3001 54M98.3001 54C96.1001 52.5 94.8001 50.6 93.7001 48.7C93.3001 48 92.5001 47.6 91.6001 47.8C90.8001 48 90.2001 48.7 90.1001 49.5L98.3001 54Z" stroke="white" stroke-width="1.1" stroke-linecap="round" stroke-linejoin="round"/>
</g>
<path id="Vector_12" fill-rule="evenodd" clip-rule="evenodd" d="M96.9999 55.8C97.6999 56 97.9999 56.9 97.4999 57.5L85.4999 72.5L86.5999 76.6L85.8999 77.4L82.3999 70.8C82.3999 70.8 79.7999 67.1 78.3999 65C77.3999 63.5 76.8999 61.8 76.8999 60C76.8999 58.2 77.4999 56.5 78.5999 55.1C80.7999 52.4 84.3999 51.4 87.5999 52.5C90.2999 53.5 94.6999 55 96.8999 55.7L96.9999 55.8Z" fill="black" stroke="white" stroke-width="1.1" stroke-linecap="round" stroke-linejoin="round"/>
<path id="Vector_13" d="M91.4999 50.5C91.8999 50.9 92.5999 50.8 92.8999 50.5C93.2999 50.1 93.1999 49.4 92.8999 49.1C92.4999 48.7 91.7999 48.8 91.4999 49.1C91.0999 49.5 91.1999 50.2 91.4999 50.5Z" fill="white"/>
<path id="Vector_14" fill-rule="evenodd" clip-rule="evenodd" d="M104.9 16.4C104.6 16.7 104.2 16.9 103.7 17C102.2 17.4 100.7 16.5 100.3 15.1C99.9 13.6 100.8 12.1 102.2 11.7C103.2 11.4 104.2 11.7 104.8 12.4L107.7 11C108 10.8 108.4 10.8 108.8 10.8C110.1 10.8 113 11 113 11L141 9.50003C141 9.50003 140.9 7.40003 141 6.40003C141 6.00003 141.2 5.70003 141.5 5.50003C141.8 5.30003 142.2 5.20003 142.6 5.40003C144.9 6.20003 150.9 7.20003 155.5 9.00003C165.2 12.9 170 18.8 174.8 26.1C180 34.1 188.6 48.3 188.6 48.3L181.7 50.2C181.7 50.2 174.2 40.3 169.1 34.3C162.5 26.6 151.5 21.7 141.4 20.6C128.8 19.2 113.1 17.6 113.1 17.6C113.1 17.6 109.7 17.6 108.4 17.7C108 17.7 107.7 17.7 107.4 17.5L104.8 16.3L104.9 16.4Z" fill="black" stroke="white" stroke-width="1.1" stroke-linecap="round" stroke-linejoin="round"/>
<path id="Vector_15" fill-rule="evenodd" clip-rule="evenodd" d="M152.8 15.8999C152.5 15.4999 152 15.3999 151.7 15.6999C151.3 15.9999 151.2 16.4999 151.5 16.7999L166.7 38.7999C167 39.1999 167.5 39.2999 167.8 38.9999C168.2 38.6999 168.3 38.1999 168 37.8999L152.8 15.8999Z" fill="white"/>
<path id="Vector_16" fill-rule="evenodd" clip-rule="evenodd" d="M165.2 32.9C165.1 32.7 164.8 32.7 164.6 32.9L163 34C162.8 34.1 162.7 34.4 162.9 34.6L174.1 50.9C174.2 51.1 175.4 51.1 175.7 50.9L176.1 50.6C176.3 50.5 176.6 49.4 176.5 49.2L165.3 32.9H165.2Z" fill="black" stroke="white" stroke-width="1.1" stroke-linecap="round" stroke-linejoin="round"/>
<path id="Vector_17" d="M152.4 18.0001C153.5 17.9001 154.2 16.9001 154.1 15.8001C154 14.7001 153 14.0001 151.9 14.1001C150.8 14.2001 150.1 15.2 150.2 16.3001C150.3 17.4001 151.3 18.1001 152.4 18.0001Z" fill="white"/>
<path id="Vector_18" fill-rule="evenodd" clip-rule="evenodd" d="M173.4 50.7C173 50.3 172.9 49.8 173.1 49.3C173.3 48.8 173.8 48.5 174.3 48.5C175 48.5 175.6 48.5 176.2 48.5C177.4 48.5 178.5 47.7 178.8 46.5C178.9 46.1 179 45.7 179.1 45.3C179.4 44.1 180.4 43.1 181.6 42.6C182.8 42.2 183.9 43 185.2 43.2C187.2 43.4 191.7 43.4 191.7 43.4V58.8C191.7 58.8 184 58.8 181 58.8C179.5 58.8 178.1 57.9 177.5 56.5C176.5 54.1 175.1 52.2 173.4 50.6V50.7Z" fill="black" stroke="white" stroke-width="1.1" stroke-linecap="round" stroke-linejoin="round"/>
<path id="Vector_19" fill-rule="evenodd" clip-rule="evenodd" d="M182 52.6C182 51.7 182.9 50.9 183.9 50.9H187.2C188.3 50.9 189.1 51.7 189.1 52.6C189.1 53.5 188.2 54.3 187.2 54.3H183.9C182.8 54.3 182 53.5 182 52.6Z" fill="black" stroke="white" stroke-width="1.1" stroke-linecap="round" stroke-linejoin="round"/>
<path id="Vector_20" d="M183 48.3C184.1 48.3 184.9 47.4 184.9 46.3C184.9 45.2 184 44.4 182.9 44.4C181.8 44.4 181 45.3 181 46.4C181 47.5 181.9 48.3 183 48.3Z" fill="white"/>
<path id="Vector_21" d="M118.5 30.5H26.5C24.0147 30.5 22 32.5147 22 35V94C22 96.4853 24.0147 98.5 26.5 98.5H118.5C120.985 98.5 123 96.4853 123 94V35C123 32.5147 120.985 30.5 118.5 30.5Z" fill="black" stroke="white"/>
<path id="Vector_22" d="M117.8 35H28V86.5H117.8V35Z" stroke="white"/>
<path id="Vector_23" d="M63 44.5H33V68.5H63V44.5Z" stroke="white"/>
<path id="Vector_24" d="M28 76H107" stroke="#969696" stroke-dasharray="2 2"/>
<path id="Vector_25" d="M86 71.5C88.8 71.5 91 73.7 91 76.5C91 79.3 88.8 81.5 86 81.5C83.2 81.5 81 79.3 81 76.5C81 73.7 83.2 71.5 86 71.5Z" fill="white" stroke="white"/>
<path id="Vector_26" d="M67.5 76V35" stroke="white"/>
<path id="Vector_27" d="M117.7 35H107.5V45.2H117.7V35Z" stroke="white"/>
<path id="Vector_28" d="M117.7 45.5H107.5V55.7H117.7V45.5Z" stroke="white"/>
<path id="Vector_29" d="M117.7 56H107.5V65.5H117.7V56Z" stroke="white"/>
<path id="Vector_30" d="M117.7 65.8H107.5V76H117.7V65.8Z" stroke="white"/>
<path id="Vector_31" d="M117.7 76.3H107.5V86.5H117.7V76.3Z" stroke="white"/>
<path id="Vector_32" d="M55.3 91.3H61.3C62.3 91.3 63.1 92.1 63.1 93.1C63.1 94.1 62.3 94.9 61.3 94.9H55.3C54.3 94.9 53.5 94.1 53.5 93.1C53.5 92.1 54.3 91.3 55.3 91.3Z" stroke="white"/>
<path id="Vector_33" d="M69.5 91.3H75.5C76.5 91.3 77.3 92.1 77.3 93.1C77.3 94.1 76.5 94.9 75.5 94.9H69.5C68.5 94.9 67.7 94.1 67.7 93.1C67.7 92.1 68.5 91.3 69.5 91.3Z" stroke="white"/>
<path id="Vector_34" d="M83 91.3H89C90 91.3 90.8 92.1 90.8 93.1C90.8 94.1 90 94.9 89 94.9H83C82 94.9 81.2 94.1 81.2 93.1C81.2 92.1 82 91.3 83 91.3Z" stroke="white"/>
<g id="Clip path group">
<mask id="mask0_2022_3903" style="mask-type:luminance" maskUnits="userSpaceOnUse" x="70" y="35" width="38" height="42">
<g id="clippath">
<path id="Vector_35" d="M107.5 35.5H70.5V76.5H107.5V35.5Z" fill="white"/>
</g>
</mask>
<g mask="url(#mask0_2022_3903)">
<g id="Group">
<g id="Group_2">
<path id="Vector_36" d="M90.2998 17.2001H90.6998L91.5998 38.5001H91.1998L90.2998 17.2001Z" fill="#FCBF00" stroke="white"/>
<g id="Vector_37">
<path d="M92.6 19.6V19.1C92.6667 19.1 92.7 19.1 92.7 19.1H92.5L91.8 18.9L89.8 18.3C89.5 18.2 89.2 17.9 89.1 17.6C89 17.3 89.1 16.9 89.3 16.6L100.6 1.80004C100.8 1.50004 101.3 1.30004 101.7 1.40004C102.1 1.40004 102.4 1.80004 102.5 2.20004L104 8.60004L104.6 11.1L104.8 11.8V12L99.1 56.7H96.4C96.4 56.6 93.2 19.5 93.2 19.5V19.2H92.8V19.7L92.6 19.6Z" fill="#FCBF00"/>
<path d="M89.3 16.6C89.1 16.9 89 17.3 89.1 17.6C89.2 17.9 89.5 18.2 89.8 18.3L91.8 18.9L92.5 19.1H92.7C92.7 19.1 92.6667 19.1 92.6 19.1V19.6L92.8 19.7V19.2H93.2V19.5C93.2 19.5 96.4 56.6 96.4 56.7H99.1L104.8 12V11.8L104.6 11.1L104 8.60004L102.5 2.20004C102.4 1.80004 102.1 1.40004 101.7 1.40004C101.3 1.30004 100.8 1.50004 100.6 1.80004L89.3 16.6ZM89.3 16.6L89 16.3" stroke="white"/>
</g>
<path id="Vector_38" d="M98.1 51.7001H97.7" stroke="white"/>
<path id="Vector_39" d="M97.8999 52.7001C97.5999 52.7001 97.3999 52.5001 97.3999 52.2001C97.3999 51.9001 97.5999 51.7001 97.8999 51.7001C98.1999 51.7001 98.3999 51.9001 98.3999 52.2001C98.3999 52.5001 98.1999 52.7001 97.8999 52.7001Z" fill="#FCBF00" stroke="white"/>
<path id="Vector_40" fill-rule="evenodd" clip-rule="evenodd" d="M91.3999 50.8001C91.3999 51.0001 91.5999 51.1001 91.7999 51.2001C92.0999 51.2001 92.2999 51.1001 92.2999 50.9001L92.8999 43.6001C92.8999 43.4001 92.6999 43.3001 92.4999 43.2001C92.1999 43.2001 91.9999 43.3001 91.9999 43.5001L91.3999 50.8001Z" fill="#FCBF00"/>
<g id="Group_3">
<path id="Vector_41" d="M90.3999 50.7001C90.3999 51.2001 90.5999 51.6 90.8999 51.8C91.1999 52 91.4999 52.1 91.7999 52.1L91.9999 50.1C91.9999 50.1 92.0999 50.1 92.1999 50.1C92.1999 50.1 92.4999 50.4001 92.3999 50.7001L90.3999 50.5V50.7001ZM91.6999 52.2001C91.9999 52.2001 92.2999 52.2 92.5999 52C92.8999 51.8 93.1999 51.5 93.2999 51L91.2999 50.8C91.2999 50.5 91.4999 50.3001 91.5999 50.2001C91.6999 50.2001 91.7999 50.2001 91.7999 50.2001L91.5999 52.2001H91.6999ZM93.2999 51L93.8999 43.7001L91.8999 43.5L91.2999 50.8L93.2999 51ZM93.8999 43.7001C93.8999 43.2001 93.6999 42.8 93.3999 42.6C93.0999 42.4 92.7999 42.3 92.4999 42.3L92.2999 44.3C92.2999 44.3 92.1999 44.3 92.0999 44.3C92.0999 44.3 91.7999 44.0001 91.8999 43.7001L93.8999 43.9001V43.7001ZM92.5999 42.3C92.2999 42.3 91.9999 42.3 91.6999 42.5C91.3999 42.7 91.0999 43 90.9999 43.5L92.9999 43.7001C92.9999 44.0001 92.7999 44.2 92.6999 44.3C92.5999 44.3 92.4999 44.3 92.4999 44.3L92.6999 42.3H92.5999ZM90.9999 43.4001L90.3999 50.7001L92.3999 50.9001L92.9999 43.6L90.9999 43.4001Z" fill="white"/>
</g>
<path id="Vector_42" d="M92.1999 50.8001C91.9999 51.0001 91.6999 51.0001 91.4999 50.8001C91.2999 50.6001 91.2999 50.3001 91.4999 50.1001C91.6999 49.9001 91.9999 49.9001 92.1999 50.1001C92.3999 50.3001 92.3999 50.6001 92.1999 50.8001Z" fill="#FCBF00" stroke="white"/>
<path id="Vector_43" d="M92.6999 44.1C92.4999 44.3 92.1999 44.3 91.9999 44.1C91.7999 43.9 91.7999 43.6 91.9999 43.4C92.1999 43.2 92.4999 43.2 92.6999 43.4C92.8999 43.6 92.8999 43.9 92.6999 44.1Z" fill="#FCBF00" stroke="white"/>
<path id="Vector_44" d="M97.7 54.4001H97.8C98.1 54.4001 98.4 54.6001 98.7 54.8001C99.5 55.4001 99.6 56.5001 99 57.3001C98.4 58.1001 97.3 58.2001 96.5 57.6001C96.1 57.3001 95.8 56.8001 95.8 56.3001V56.0001L95.5 55.9001L90.5 54.2001L90.6 52.8001C90.6 51.8001 90.8 50.4001 90.9 49.0001C90.9 48.6001 91.2 48.3001 91.6 48.2001C92 48.2001 92.4 48.2001 92.5 48.6001C93.6 50.6001 95.1 52.7001 97.5 54.3001L97.7 54.4001Z" fill="#FCBF00" stroke="white"/>
<g id="Vector_45">
<path d="M97.4999 55.9001L84.9999 71.5001L84.7999 71.7001V71.9001L85.8999 75.7001L82.7999 69.8001V69.6001L82.4999 69.2001L81.4999 67.7001L78.9999 64.0001C78.0999 62.6001 77.5999 61.0001 77.5999 59.3001L97.7999 55.8001L97.4999 55.9001ZM97.4999 55.9001L96.9999 55.7001L94.1999 54.7001C91.9999 53.9001 89.2999 53.0001 87.3999 52.3001C84.3999 51.2001 80.9999 52.3001 78.9999 54.7001C77.9999 56.0001 77.3999 57.6001 77.3999 59.3001L97.5999 55.8001L97.4999 55.9001Z" fill="#FCBF00"/>
<path d="M97.4999 55.9001L84.9999 71.5001L84.7999 71.7001V71.9001L85.8999 75.7001L82.7999 69.8001M97.4999 55.9001L97.7999 55.8001L77.5999 59.3001C77.5999 61.0001 78.0999 62.6001 78.9999 64.0001L81.4999 67.7001L82.4999 69.2001L82.7999 69.6001V69.8001M97.4999 55.9001L96.9999 55.7001L94.1999 54.7001C91.9999 53.9001 89.2999 53.0001 87.3999 52.3001C84.3999 51.2001 80.9999 52.3001 78.9999 54.7001C77.9999 56.0001 77.3999 57.6001 77.3999 59.3001L97.5999 55.8001L97.4999 55.9001ZM82.7999 69.8001L82.3999 70.1001" stroke="white"/>
</g>
<path id="Vector_46" d="M92.3998 49.6C92.1998 49.8 91.8998 49.8 91.6998 49.6C91.4998 49.4 91.4998 49.1 91.6998 48.9C91.8998 48.7 92.1998 48.7 92.3998 48.9C92.5998 49.1 92.5998 49.4 92.3998 49.6Z" fill="#FCBF00" stroke="white"/>
</g>
</g>
</g>
</g>
</g>
</svg>
