<svg width="194" height="108" viewBox="0 0 194 108" fill="none" xmlns="http://www.w3.org/2000/svg">
<path d="M177.8 73.5C177.8 75 179 76.2 180.5 76.2C182 76.2 183.2 75 183.2 73.5C183.2 72 182 70.8001 180.5 70.8001C179 70.8001 177.8 72 177.8 73.5ZM177.8 58C177.8 59.5 179 60.7001 180.5 60.7001C182 60.7001 183.2 59.5 183.2 58C183.2 56.5 182 55.3 180.5 55.3C179 55.3 177.8 56.5 177.8 58ZM181 73.5V58H180V73.5H181Z" fill="white"/>
<path d="M166.9 64.9C165.7 65.8 165.5 67.5 166.4 68.6C167.3 69.8 169 70 170.1 69.1C171.3 68.2 171.5 66.5 170.6 65.4C169.7 64.2 168 64 166.9 64.9ZM178.9 55.9C177.7 56.8 177.5 58.5 178.4 59.6C179.3 60.8 181 61 182.1 60.1C183.3 59.2 183.5 57.5 182.6 56.4C181.7 55.2 180 55 178.9 55.9ZM168.8 67.4L180.8 58.4L180.2 57.6L168.2 66.6L168.8 67.4Z" fill="white"/>
<path d="M147.4 13.5H45.1001C42.6148 13.5 40.6001 15.5147 40.6001 18V84C40.6001 86.4853 42.6148 88.5 45.1001 88.5H147.4C149.885 88.5 151.9 86.4853 151.9 84V18C151.9 15.5147 149.885 13.5 147.4 13.5Z" fill="black" stroke="white"/>
<path d="M146.2 18.5H47.2002V75.3H146.2V18.5Z" stroke="white"/>
<path d="M75.9002 19H47.2002V35.6H75.9002V19Z" stroke="white"/>
<path d="M134.3 19H105.6V35.6H134.3V19Z" stroke="white"/>
<path d="M105.7 19H75.8999V35.6H105.7V19Z" stroke="white"/>
<path d="M90.7998 75.8V36.1" stroke="white"/>
<path d="M146.2 18.5H134.8V29.9H146.2V18.5Z" stroke="white"/>
<path d="M146.2 30H134.8V41.4H146.2V30Z" stroke="white"/>
<path d="M146.2 41.6H134.8V52.2H146.2V41.6Z" stroke="white"/>
<path d="M146.2 52.3H134.8V63.7001H146.2V52.3Z" stroke="white"/>
<path d="M146.2 63.9H134.8V75.3H146.2V63.9Z" stroke="white"/>
<path d="M77.2998 80.4H83.8998C84.9998 80.4 85.8998 81.3 85.8998 82.4C85.8998 83.5 84.9998 84.4 83.8998 84.4H77.2998C76.1998 84.4 75.2998 83.5 75.2998 82.4C75.2998 81.3 76.1998 80.4 77.2998 80.4Z" stroke="white"/>
<path d="M93 80.4H99.6C100.7 80.4 101.6 81.3 101.6 82.4C101.6 83.5 100.7 84.4 99.6 84.4H93C91.9 84.4 91 83.5 91 82.4C91 81.3 91.9 80.4 93 80.4Z" stroke="white"/>
<path d="M107.8 80.4H114.4C115.5 80.4 116.4 81.3 116.4 82.4C116.4 83.5 115.5 84.4 114.4 84.4H107.8C106.7 84.4 105.8 83.5 105.8 82.4C105.8 81.3 106.7 80.4 107.8 80.4Z" stroke="white"/>
<path d="M128 90.5V95C128 95.2 128 95.7 128.5 96.5C129 97.5 132.5 99.5 141.5 99.5C150.5 99.5 153.2 97.2 154.5 96V90L156 89V83.5L154.5 82.5L154 81.5V76.5C153.2 75.2 149.3 72.5 140.5 72.5C131.7 72.5 127.8 75.2 127 76.5V80.5L127.5 82L129 83.5V89L128 90.5Z" fill="#FCBF00"/>
<path d="M154.5 81.4C154.5 81.2 154.5 81.1 154.5 80.9V77.1C154.5 73.8 147.3 72 140.5 72C133.7 72 126.5 73.8 126.5 77.1C126.5 80.4 126.5 77.4 126.5 77.5C126.5 77.5 126.5 77.6 126.5 77.7V80.9C126.5 82 127.2 82.9 128.5 83.6C128.5 83.8 128.5 83.9 128.5 84.1C128.5 84.3 128.5 84.4 128.5 84.5C128.5 84.5 128.5 84.6 128.5 84.7V87.9C128.5 88.2 128.5 88.5 128.7 88.7C127.5 89.6 127.3 90.4 127.3 91C127.3 91.6 127.3 91.3 127.3 91.4C127.3 91.4 127.3 91.5 127.3 91.6V94.8C127.3 98.1 134.5 99.9 141.3 99.9C148.1 99.9 155.3 98.1 155.3 94.8V91C155.3 90.7 155.3 90.4 155.1 90.2C156 89.5 156.5 88.7 156.5 87.8V84C156.5 83.3 156.1 82.3 154.5 81.3V81.4ZM131.3 74.6C133.8 73.8 137.1 73.3 140.6 73.3C144.1 73.3 147.4 73.8 149.9 74.6C152.1 75.3 153.4 76.3 153.4 77.2C153.4 78.1 152.1 79 149.9 79.8C147.4 80.6 144.1 81.1 140.6 81.1C137.1 81.1 133.8 80.6 131.3 79.8C129.1 79.1 127.8 78.1 127.8 77.2C127.8 76.3 129.1 75.4 131.3 74.6ZM153.3 79.3V80.9C153.3 81.6 152.4 82.4 150.7 83.1V80.6C151.7 80.2 152.6 79.8 153.3 79.3ZM149.5 81.1V83.6C148.7 83.8 147.9 84.1 146.9 84.2V81.7C147.8 81.5 148.7 81.3 149.5 81.1ZM145.6 81.9V84.4C144.8 84.5 143.9 84.6 143 84.7V82.1C143.9 82.1 144.7 82 145.6 81.8V81.9ZM141.8 82.2V84.8C141.4 84.8 141 84.8 140.5 84.8C140 84.8 139.6 84.8 139.2 84.8V82.2C139.6 82.2 140.1 82.2 140.5 82.2C140.9 82.2 141.4 82.2 141.8 82.2ZM138 82.1V84.7C137.1 84.7 136.3 84.6 135.4 84.4V81.9C136.2 82 137.1 82.1 138 82.2V82.1ZM134.2 81.7V84.2C133.3 84 132.4 83.8 131.6 83.6V81.1C132.4 81.3 133.3 81.5 134.2 81.7ZM127.8 80.9V79.3C128.5 79.8 129.3 80.3 130.4 80.6V83.1C128.8 82.4 127.8 81.6 127.8 80.9ZM129.7 86.4C130.4 86.9 131.2 87.4 132.3 87.7V90.2C130.7 89.5 129.7 88.7 129.7 88V86.4ZM131 97.2C129.4 96.5 128.4 95.7 128.4 95V93.4C129.1 93.9 129.9 94.4 131 94.7V97.2ZM134.8 98.3C133.9 98.1 133 97.9 132.2 97.7V95.2C133 95.4 133.9 95.6 134.8 95.8V98.3ZM138.6 98.7C137.7 98.7 136.9 98.6 136 98.4V95.9C136.8 96 137.7 96.1 138.6 96.2V98.8V98.7ZM142.5 98.8C142.1 98.8 141.7 98.8 141.2 98.8C140.7 98.8 140.3 98.8 139.9 98.8V96.2C140.3 96.2 140.8 96.2 141.2 96.2C141.6 96.2 142.1 96.2 142.5 96.2V98.8ZM146.3 98.5C145.5 98.6 144.6 98.7 143.7 98.8V96.2C144.6 96.2 145.4 96.1 146.3 95.9V98.4V98.5ZM150.1 97.6C149.3 97.8 148.5 98 147.5 98.2V95.7C148.4 95.5 149.3 95.3 150.1 95.1V97.6ZM153.9 95C153.9 95.7 153 96.5 151.3 97.2V94.7C152.3 94.3 153.2 93.9 153.9 93.4V95ZM150.5 93.7C148 94.5 144.7 95 141.2 95C137.7 95 134.4 94.5 131.9 93.7C129.7 93 128.4 92 128.4 91.1C128.4 90.2 128.8 90.1 129.3 89.8C131.4 91.9 137.1 93 142.4 93C147.7 93 151.2 92.3 153.9 90.9C153.9 90.9 153.9 91 153.9 91.1C153.9 92 152.6 92.9 150.4 93.7H150.5ZM133.5 90.6V88.1C134.3 88.3 135.2 88.5 136.1 88.7V91.2C135.2 91 134.3 90.8 133.5 90.6ZM137.4 91.4V88.9C138.2 89 139.1 89.1 140 89.2V91.8C139.1 91.8 138.3 91.7 137.4 91.5V91.4ZM141.2 91.8V89.2C141.6 89.2 142.1 89.2 142.5 89.2C142.9 89.2 143.4 89.2 143.8 89.2V91.8C143.4 91.8 143 91.8 142.5 91.8C142 91.8 141.6 91.8 141.2 91.8ZM145 91.7V89.1C145.9 89.1 146.7 89 147.6 88.8V91.3C146.8 91.4 145.9 91.5 145 91.6V91.7ZM148.8 91.2V88.7C149.7 88.5 150.6 88.3 151.4 88.1V90.6C150.6 90.8 149.8 91 148.8 91.2ZM155.2 88C155.2 88.7 154.3 89.5 152.6 90.2V87.7C153.6 87.3 154.5 86.9 155.2 86.4V88ZM151.7 86.7C149.2 87.5 145.9 88 142.4 88C138.9 88 135.6 87.5 133.1 86.7C131 86 129.7 85.1 129.6 84.3C132.3 85.5 136.5 86.1 140.4 86.1C144.3 86.1 151.9 84.9 153.8 82.6C154.6 83.1 155.1 83.7 155.1 84.2C155.1 85.1 153.8 86 151.6 86.8L151.7 86.7Z" fill="white"/>
<path d="M43.8998 38.7C53.3439 38.7 60.9998 31.0441 60.9998 21.6C60.9998 12.1559 53.3439 4.5 43.8998 4.5C34.4557 4.5 26.7998 12.1559 26.7998 21.6C26.7998 31.0441 34.4557 38.7 43.8998 38.7Z" fill="black" stroke="white" stroke-dasharray="2 2"/>
<path d="M39.1002 30.7999C38.9002 30.6999 38.8002 30.6 38.6002 30.5C38.6002 30.2 38.6002 29.9 38.6002 29.5C38.4002 28.9 38.1002 28.4 37.7002 27.9C37.3002 28.2 37.1002 28.6999 37.2002 29.2999C36.9002 29 36.7002 28.7999 36.4002 28.5C36.6002 28.2 36.6002 27.9 36.6002 27.5C36.6002 26.9 36.6002 26.4 36.3002 25.8C35.8002 26 35.5002 26.5 35.4002 27.1C35.2002 26.8 35.1002 26.5 34.9002 26.1C35.1002 25.9 35.3002 25.6 35.4002 25.2C35.6002 24.7 35.6002 24.1 35.5002 23.5C35.0002 23.5 34.5002 24 34.3002 24.5C34.2002 24.1 34.1002 23.8 34.1002 23.4C34.4002 23.2 34.7002 23 34.9002 22.7C35.2002 22.2 35.4002 21.7 35.5002 21.1C34.9002 21.1 34.4002 21.3 34.0002 21.9C34.0002 21.5 34.0002 21.1 34.0002 20.7C34.3002 20.7 34.7002 20.4 35.0002 20.2C35.4002 19.9 35.8002 19.4 36.0002 18.8C35.5002 18.6 34.8002 18.8 34.3002 19.2C34.4002 18.8 34.5002 18.4 34.7002 18C35.1002 18 35.5002 18 35.8002 17.8C36.3002 17.6 36.8002 17.2 37.1002 16.7C36.6002 16.3 36.0002 16.3 35.3002 16.7C35.5002 16.3 35.8002 16 36.0002 15.6C36.3002 15.8 36.8002 15.8 37.2002 15.6C37.8002 15.5 38.3002 15.3 38.9002 14.8C38.6002 14.3 37.9002 14.1 37.1002 14.3C37.6002 13.8 38.2002 13.3 38.9002 13C39.1002 12.9 39.2002 12.7 39.1002 12.5C39.0002 12.3 38.7002 12.2 38.5002 12.3C37.8002 12.7 37.1002 13.2 36.6002 13.7C36.9002 12.9 36.9002 12.3 36.6002 11.7C35.9002 12.2 35.4002 12.9 35.3002 13.6C35.2002 14.1 35.3002 14.5 35.5002 14.9C35.2002 15.3 34.9002 15.7 34.7002 16.1C34.7002 15.3 34.6002 14.6 34.1002 14.2C33.6002 14.9 33.3002 15.8 33.4002 16.4C33.4002 16.9 33.6002 17.3 33.9002 17.5C33.7002 18 33.6002 18.4 33.4002 18.8C33.2002 18 32.9002 17.4 32.3002 17.2C32.0002 18 32.0002 18.9 32.3002 19.5C32.5002 20 32.8002 20.3 33.1002 20.5C33.1002 21 33.1002 21.4 33.1002 21.9C32.8002 21.2 32.3002 20.8 31.7002 20.7C31.7002 21.6 31.9002 22.4 32.2002 22.9C32.5002 23.3 32.8002 23.5 33.2002 23.6C33.2002 24.1 33.4002 24.5 33.4002 24.9C32.9002 24.4 32.3002 24.1 31.7002 24.1C31.9002 25 32.3002 25.7 32.8002 26.1C33.1002 26.4 33.6002 26.5 33.9002 26.5C34.1002 26.9 34.2002 27.3 34.4002 27.6C33.8002 27.3 33.1002 27.2 32.6002 27.4C33.0002 28.2 33.6002 28.8 34.2002 29.1C34.6002 29.3 35.0002 29.3 35.3002 29.2C35.6002 29.5 35.8002 29.8 36.1002 30.2C35.5002 30 34.9002 30.1 34.5002 30.4C35.1002 31.1 35.9002 31.5 36.6002 31.6C37.0002 31.6 37.4002 31.6 37.7002 31.4C37.9002 31.5 38.0002 31.6 38.2002 31.7C38.5002 31.9 38.9002 31.7 39.0002 31.5C39.2002 31.2 39.0002 30.9 38.8002 30.7L39.1002 30.7999Z" fill="white"/>
<path d="M54.2999 24.9C54.3999 24.5 54.4999 24 54.4999 23.6C54.8999 23.6 55.1999 23.3 55.4999 22.9C55.8999 22.4 56.0999 21.6 55.9999 20.7C55.3999 20.7 54.8999 21.3 54.5999 21.9C54.5999 21.4 54.5999 21 54.5999 20.5C54.8999 20.3 55.1999 20 55.3999 19.5C55.5999 18.9 55.6999 18.1 55.3999 17.2C54.7999 17.5 54.4999 18.1 54.2999 18.8C54.1999 18.3 53.9999 17.9 53.7999 17.5C54.0999 17.2 54.2999 16.9 54.2999 16.4C54.2999 15.8 54.0999 14.9 53.5999 14.2C53.0999 14.6 52.9999 15.3 52.9999 16.1C52.6999 15.7 52.3999 15.3 52.0999 14.9C52.2999 14.6 52.3999 14.1 52.2999 13.6C52.1999 13 51.6999 12.2 50.8999 11.6C50.5999 12.1 50.5999 12.8 50.8999 13.6C50.2999 13.1 49.6999 12.6 48.9999 12.2C48.7999 12.1 48.4999 12.2 48.3999 12.4C48.2999 12.6 48.3999 12.8 48.5999 12.9C49.1999 13.3 49.8999 13.7 50.3999 14.2C49.6999 14 48.9999 14.2 48.5999 14.7C49.0999 15.1 49.6999 15.3 50.2999 15.5C50.6999 15.5 51.0999 15.5 51.4999 15.5C51.7999 15.8 51.9999 16.2 52.1999 16.6C51.5999 16.3 50.8999 16.3 50.3999 16.6C50.7999 17.1 51.1999 17.5 51.6999 17.7C52.0999 17.9 52.4999 18 52.7999 17.9C52.9999 18.3 53.0999 18.7 53.1999 19.1C52.6999 18.6 52.0999 18.5 51.4999 18.7C51.6999 19.3 52.0999 19.8 52.4999 20.1C52.7999 20.4 53.0999 20.5 53.4999 20.6C53.4999 21 53.4999 21.4 53.4999 21.8C53.1999 21.3 52.5999 21 51.9999 21C51.9999 21.6 52.2999 22.2 52.5999 22.6C52.7999 22.9 53.0999 23.2 53.3999 23.3C53.3999 23.7 53.1999 24 53.1999 24.4C52.9999 23.8 52.5999 23.4 51.9999 23.4C51.8999 24 51.9999 24.6 52.0999 25.1C52.1999 25.4 52.3999 25.7 52.5999 26C52.3999 26.3 52.2999 26.6 52.0999 27C52.0999 26.4 51.6999 25.9 51.1999 25.7C50.8999 26.3 50.7999 26.8 50.8999 27.4C50.8999 27.7 50.8999 28.1 51.0999 28.4C50.8999 28.7 50.5999 28.9 50.2999 29.2C50.2999 28.6 50.2999 28.1 49.7999 27.8C49.3999 28.3 49.0999 28.8 48.8999 29.4C48.8999 29.7 48.7999 30.1 48.8999 30.4C48.6999 30.5 48.5999 30.6 48.3999 30.7C48.0999 30.9 48.0999 31.2 48.1999 31.5C48.3999 31.8 48.6999 31.9 48.9999 31.7C49.1999 31.6 49.2999 31.5 49.4999 31.4C49.7999 31.6 50.1999 31.6 50.5999 31.6C51.2999 31.5 52.0999 31.1 52.6999 30.4C52.2999 30.1 51.6999 30 51.0999 30.2C51.3999 29.9 51.6999 29.6 51.8999 29.2C52.1999 29.2 52.5999 29.2 52.9999 29.1C53.5999 28.8 54.1999 28.3 54.5999 27.4C54.0999 27.2 53.4999 27.4 52.8999 27.7C53.0999 27.3 53.2999 26.9 53.3999 26.6C53.7999 26.6 54.1999 26.5 54.4999 26.2C54.9999 25.8 55.4999 25.1 55.5999 24.2C55.0999 24.2 54.4999 24.5 53.9999 25L54.2999 24.9Z" fill="white"/>
<path d="M47.9998 28.2L44.0998 26.2H43.8998C43.8998 26.1 43.6998 26.2 43.6998 26.2L39.7998 28.3L40.5998 23.9V23.6L40.4998 23.4L37.2998 20.3L41.6998 19.7H41.9998L42.0998 19.4L43.9998 15.4L45.8998 19.4V19.6C45.9998 19.6 46.2998 19.6 46.2998 19.6L50.6998 20.2L47.4998 23.3L47.2998 23.5V23.8L48.0998 28.1L47.9998 28.2Z" fill="#FCBF00" stroke="white"/>
<path d="M33.9 42.2C34.3 41.8 34.6 41.1999 34.6 40.5999V31C34.6 29.8 33.6 28.7 32.3 28.7H22.7C22.1 28.7 21.5 29 21.1 29.4L8.7 41.7999C8.3 42.1999 8 42.8 8 43.4C8 44 8.3 44.6 8.7 45L18.3 54.5999C18.7 54.9999 19.3 55.2999 19.9 55.2999C20.5 55.2999 21.1 54.9999 21.5 54.5999L33.9 42.2ZM32.8 33.0999C32.8 34.4999 31.7 35.7 30.2 35.7C28.7 35.7 27.6 34.5999 27.6 33.0999C27.6 31.5999 28.7 30.5 30.2 30.5C31.7 30.5 32.8 31.5999 32.8 33.0999Z" fill="#FCBF00" stroke="white"/>
</svg>
