<svg width="194" height="108" viewBox="0 0 194 108" fill="none" xmlns="http://www.w3.org/2000/svg">
<g id="unisystems-icn-1 1">
<path id="Vector" d="M96.8001 79.4C95.4001 79.8 94.5001 81.3 94.9001 82.7C95.3001 84.1 96.8001 85 98.2001 84.6C99.6001 84.2 100.5 82.7 100.1 81.3C99.7001 79.9 98.2001 79 96.8001 79.4ZM138 52L133 54.8L138 57.7V51.9V52ZM97.6001 82.5L120.8 78.4L120.6 77.4L97.4001 81.5L97.6001 82.5ZM124.6 75.8L136.1 56.2L135.2 55.7L123.7 75.3L124.6 75.8ZM120.8 78.4C122.4 78.1 123.8 77.2 124.6 75.8L123.7 75.3C123 76.4 121.9 77.2 120.6 77.5L120.8 78.5V78.4Z" fill="white"/>
<path id="Vector_2" fill-rule="evenodd" clip-rule="evenodd" d="M30 91C30 89.6 31.1 88.5 32.5 88.5H54.8C56.2 88.5 57.3 89.6 57.3 91C57.3 92.4 56.2 93.5 54.8 93.5H32.5C31.1 93.5 30 92.4 30 91Z" fill="black" stroke="white" stroke-linecap="round" stroke-linejoin="round"/>
<path id="Vector_3" d="M9.8001 68.3C8.9001 68.3 8.1001 69 8.1001 70V83.3C8.1001 84.2 8.8001 85 9.8001 85H17.9001C18.8001 85 19.6001 84.3 19.6001 83.3V70C19.6001 69.1 18.9001 68.3 17.9001 68.3H9.8001Z" fill="black" stroke="white"/>
<path id="Vector_4" d="M34.3999 58H34.4999C34.4999 58.1 34.4999 58.3 34.4999 58.3L34.1999 70.9L34.2999 71.1V88.4H61.6999C62.9999 81.6 63.1999 77.4 62.5999 73.1C62.1999 69.9 61.3999 66.6 60.1999 62.1C59.7999 60.4 59.2999 58.6 58.7999 56.5H33.9999C33.8999 56.8 33.8999 57 33.8999 57.2C33.8999 57.4 33.9999 57.7 34.2999 58.1L34.3999 58Z" fill="black" stroke="white"/>
<path id="Vector_5" d="M49.1 61.8C49.1 63.9 49.1 68.8001 49 73.3001C49 76.7001 49 79.9 49 81.6C49 81.8 49 81.9 49.2 82C49.3 82.1 49.5 82.2 49.6 82.2C50.2 82.2 50.9 82.2 51.7 82.2C54.2 82.2 57.6 82.2 59.3 82.1C59.6 82.1 59.9 81.8 59.9 81.5C60.2 74.8 59.6 68.2001 57.8 61.7001C57.8 61.4001 57.5 61.3 57.2 61.3H49.8C49.5 61.3 49.2 61.6001 49.2 61.9001L49.1 61.8Z" fill="black" stroke="white"/>
<g id="Vector_6">
<path d="M45.3002 61.5H40.1002C39.9002 61.5 39.7002 61.6 39.6002 62C38.4002 65.2 38.0002 68.4 38.1002 71.6C38.1002 72.2 38.5002 72.4 38.7002 72.4C40.1002 72.4 42.6002 72.4 44.4002 72.4C44.8002 72.4 45.2002 72.4 45.5002 72.4C45.6002 72.4 45.8002 72.4 45.9002 72.2C46.0002 72 46.1002 71.8 46.1002 71.5M45.3002 61.5L46.0002 71.6L45.3002 61.5ZM45.3002 61.5C45.5002 61.5 45.9002 61.8 45.9002 62.3L45.3002 61.5ZM45.3002 61.5L45.9002 62.3L45.3002 61.5ZM46.0002 71.6V62.3V71.6ZM46.0002 71.6V62.3V71.6Z" fill="black"/>
<path d="M45.3002 61.5H40.1002C39.9002 61.5 39.7002 61.6 39.6002 62C38.4002 65.2 38.0002 68.4 38.1002 71.6C38.1002 72.2 38.5002 72.4 38.7002 72.4C40.1002 72.4 42.6002 72.4 44.4002 72.4C44.8002 72.4 45.2002 72.4 45.5002 72.4C45.6002 72.4 45.8002 72.4 45.9002 72.2C46.0002 72 46.1002 71.8 46.1002 71.5M45.3002 61.5L46.0002 71.6V62.3M45.3002 61.5C45.5002 61.5 45.9002 61.8 45.9002 62.3L45.3002 61.5Z" stroke="white"/>
</g>
<path id="Vector_7" d="M10.5002 88.5C10.7002 88.7 11.1002 88.8 11.4002 88.8H56.7002V88.6V88.4V88.2V88V87.8V87.6V87.4V87.2V87V86.8V86.6V86.4V86.2V86V85.8V85.6V85.4V85.2V85V84.8V84.6V84.4V84.2V84V83.8V83.6V83.4V83.2V83V82.8V82.6V82.4V82.2V82V81.8V81.6V81.4V81.2V81V80.8V80.6V80.4V80.2V80V79.8V79.6V79.4V79.2V79V78.8V78.6V78.4V78.2V78V77.8V77.6V77.4V77.2C56.7002 72.6 52.1002 68.7 46.3002 68.7H11.9002C10.8002 68.7 10.2002 69.4 10.2002 70V85.7C10.2002 85.9 10.3002 86.2 10.5002 86.3V88.5Z" fill="black" stroke="white"/>
<path id="Vector_8" d="M9.6 92.5C6 92.5 3 95.5 3 99.1C3 102.7 6 105.7 9.6 105.7H73.6C77.2 105.7 80.2 102.7 80.2 99.1C80.2 95.5 77.2 92.5 73.6 92.5H9.6Z" fill="black" stroke="white"/>
<path id="Vector_9" d="M13.6 97.5C12.8 97.5 12.2 97.7 11.7 98C11.2 98.3 11 98.7 11 99C11 99.3 11.2 99.7 11.7 100C12.2 100.3 12.8 100.5 13.6 100.5H67.4C68.2 100.5 68.8 100.3 69.3 100C69.8 99.7 70 99.3 70 99C70 98.7 69.8 98.3 69.3 98C68.8 97.7 68.2 97.5 67.4 97.5H13.6Z" fill="black" stroke="white"/>
<path id="Vector_10" fill-rule="evenodd" clip-rule="evenodd" d="M103.2 5.90004C103.4 5.80004 103.6 5.90004 103.8 5.90004C104 6.10004 103.9 6.30004 103.8 6.50004L89.5001 18.6C89.3001 18.7 89.1001 18.6 88.9001 18.6C88.7001 18.4 88.8001 18.2 88.9001 18L103.2 5.90004Z" fill="black" stroke="black" stroke-width="0.1" stroke-linecap="round" stroke-linejoin="round"/>
<path id="Vector_11" fill-rule="evenodd" clip-rule="evenodd" d="M89.6002 16.5C89.8002 16.4 90.0002 16.4 90.1002 16.5L91.1002 17.6C91.2002 17.8 91.2002 18 91.1002 18.1L76.4002 30.4C76.2002 30.5 76.0002 30.5 75.9002 30.4L74.9002 29.3C74.8002 29.1 74.8002 28.9 74.9002 28.8L89.6002 16.5Z" fill="black" stroke="black" stroke-width="0.2" stroke-linecap="round" stroke-linejoin="round"/>
<path id="Vector_12" d="M118.478 10.9576L117.12 13.2911L119.713 14.8002L121.071 12.4667L118.478 10.9576Z" stroke="white" stroke-width="1.2"/>
<path id="Vector_13" fill-rule="evenodd" clip-rule="evenodd" d="M127.5 27.4C127.5 27.4 127.5 27.2 127.8 27.1C128 27 128.2 26.9 128.2 27L131.1 31.7C131.1 31.7 131.1 31.9 130.8 32C130.6 32.1 130.4 32.2 130.4 32.1L127.5 27.4Z" fill="white"/>
<path id="Vector_14" fill-rule="evenodd" clip-rule="evenodd" d="M117.5 12C117.4 11.8 117.5 11.6 117.6 11.5L118.9 10.7C119.1 10.6 119.3 10.7 119.4 10.8L129.4 27.1C129.5 27.3 129.4 27.5 129.3 27.6L128 28.4C127.8 28.5 127.6 28.4 127.5 28.3L117.5 12Z" fill="black" stroke="white"/>
<path id="Vector_15" fill-rule="evenodd" clip-rule="evenodd" d="M134.7 43.7L118.5 14.3C118.5 14.3 119.4 13.2 120.2 12.2C120.5 11.8 120.6 11.4 120.5 10.9C120.4 10.5 120 10.1 119.6 10C116 8.80001 108.1 6.10001 103.9 4.70001C103.4 4.50001 102.8 4.70001 102.5 5.00001C102.1 5.40001 102 6.00001 102.2 6.50001C103.4 9.80001 105.4 15 105.4 15L130.3 43.5C131.3 44.7 133.1 44.9 134.3 43.9L134.7 43.6V43.7Z" fill="black" stroke="white"/>
<path id="Vector_16" d="M103.7 6.39995C103.7 6.39995 103.8 6.39995 103.9 6.39995C103.9 6.39995 103.9 6.29995 103.9 6.19995C103.9 6.19995 103.8 6.19995 103.7 6.19995C103.7 6.19995 103.7 6.29995 103.7 6.39995Z" stroke="white" stroke-width="1.2"/>
<g id="Group">
<path id="Vector_17" d="M135.9 36C136.3 36.5 136.2 37 136.1 37.3C136 37.6 135.8 37.9 135.5 38.1L134 36.2C134 36.2 133.8 36.4 133.8 36.5C133.8 36.7 133.8 37 134 37.4L135.9 35.9V36ZM135.5 38.2C135.2 38.4 134.9 38.6 134.6 38.6C134.2 38.6 133.7 38.6 133.4 38.1L135.3 36.6C135 36.3 134.7 36.2 134.5 36.2C134.3 36.2 134.2 36.2 134.1 36.3L135.6 38.2H135.5ZM133.4 38.1L129.3 33L131.2 31.5L135.3 36.6L133.4 38.1ZM129.3 33C128.9 32.5 129 32 129.1 31.7C129.2 31.4 129.4 31.1 129.7 30.9L131.2 32.8C131.2 32.8 131.4 32.6 131.4 32.5C131.4 32.3 131.4 32 131.2 31.6L129.3 33.1V33ZM129.6 30.8C129.9 30.6 130.2 30.4 130.5 30.4C130.9 30.4 131.4 30.4 131.7 30.9L129.8 32.4C130.1 32.7 130.4 32.8 130.6 32.8C130.8 32.8 130.9 32.8 131 32.7L129.5 30.8H129.6ZM131.8 31L135.9 36.1L134 37.6L129.9 32.5L131.8 31Z" fill="white"/>
</g>
<path id="Vector_18" d="M134.3 37.1C134.5 37.1 134.6 37.1 134.7 36.9C134.7 36.7 134.7 36.6 134.5 36.5C134.3 36.4 134.2 36.5 134.1 36.7C134.1 36.9 134.1 37 134.3 37.1Z" stroke="white" stroke-width="1.2"/>
<path id="Vector_19" d="M131.6 32.3C131.5 32.8 131 33.1 130.5 32.9C130 32.8 129.7 32.3 129.9 31.8C130 31.3 130.5 31 131 31.2C131.5 31.3 131.8 31.8 131.6 32.3Z" fill="white"/>
<path id="Vector_20" d="M132.2 42.6999C132.2 42.7999 132.1 42.8999 132.1 42.8999C131.9 43.0999 131.8 43.2999 131.7 43.5999C131.5 44.3999 131.9 45.1999 132.6 45.3999C133.4 45.5999 134.2 45.1999 134.4 44.4999C134.5 44.0999 134.4 43.6999 134.3 43.2999L134.1 42.9999L134.3 42.6999L137.1 39.0999L136.4 38.1999C135.8 37.4999 135 36.4999 134.3 35.5999C134.1 35.3999 133.8 35.2999 133.6 35.3999C133.3 35.4999 133.2 35.7999 133.2 35.9999C133.4 37.9999 133.3 40.3999 132.3 42.7999L132.2 42.6999Z" fill="black" stroke="white" stroke-width="1.2"/>
<path id="Vector_21" fill-rule="evenodd" clip-rule="evenodd" d="M132.2 43.9L149.8 49.4L151 53L151.9 53.3L151.2 46.7C151.2 46.7 151.2 42.7 151.2 40.4C151.2 38.8 150.7 37.3 149.8 36C148.9 34.7 147.6 33.7 146.1 33.2C143.2 32.3 140 33.3 138.2 35.8C136 38.7 132.1 43.9 132.1 43.9H132.2Z" fill="black" stroke="white"/>
<path id="Vector_22" d="M134.5 36.2C134.4 36.7 133.9 37 133.4 36.8C132.9 36.7 132.6 36.2 132.8 35.7C132.9 35.2 133.4 34.9 133.9 35.1C134.4 35.2 134.7 35.7 134.5 36.2Z" fill="white"/>
<path id="Vector_23" fill-rule="evenodd" clip-rule="evenodd" d="M107.8 16.9999C108.2 16.9999 108.6 16.9999 109 16.9999C110.3 16.5999 111 15.1999 110.5 13.8999C110.1 12.5999 108.7 11.8999 107.4 12.3999C106.5 12.6999 106 13.3999 105.8 14.1999L103 14.5999C102.7 14.5999 102.3 14.7999 102.1 14.9999C101.2 15.6999 99.0999 17.1999 99.0999 17.1999L77.6999 29.9999C77.6999 29.9999 76.7999 28.3999 76.1999 27.6999C75.9999 27.3999 75.6999 27.2999 75.3999 27.2999C75.0999 27.2999 74.7999 27.4999 74.5999 27.6999C73.2999 29.3999 69.3999 33.0999 66.8999 36.7999C61.5999 44.4999 60.9999 51.1999 61.0999 59.0999C61.0999 67.5999 61.8999 82.3999 61.8999 82.3999L67.9999 80.3999C67.9999 80.3999 68.5999 69.2999 69.4999 62.3999C70.5999 53.3999 76.2999 44.2999 83.1999 38.4999C91.8999 31.1999 102.6 22.1999 102.6 22.1999C102.6 22.1999 105.1 20.5999 106.1 19.9999C106.4 19.7999 106.6 19.5999 106.7 19.2999L108 17.1999L107.8 16.9999Z" fill="black" stroke="white"/>
<path id="Vector_24" d="M107.6 14.8C107.7 15.1 108.1 15.3 108.4 15.2C108.7 15.1 108.9 14.7 108.8 14.4C108.7 14.1 108.3 13.9 108 14C107.7 14.1 107.5 14.5 107.6 14.8Z" stroke="white" stroke-width="1.2"/>
<path id="Vector_25" d="M73.0998 45.8C73.0998 45.8 72.9998 45.8001 72.9998 45.9001L71.7998 69.7C71.7998 69.7 71.7998 69.8001 71.8998 69.8001C71.8998 69.8001 71.9998 69.8 71.9998 69.7L73.1998 45.9001C73.1998 45.9001 73.1998 45.8 73.0998 45.8Z" stroke="white" stroke-width="1.2"/>
<path id="Vector_26" d="M71.5998 82.5C71.5998 82.5 71.6998 82.5 71.8998 82.5C72.0998 82.5 72.2998 82.4 72.4998 82.3C72.6998 82.3 72.7998 82.2 72.8998 82.1L73.6998 65C73.6998 65 73.6998 65 73.5998 65H70.6998C70.6998 64.9 70.6998 64.9 70.5998 64.9L69.7998 82C69.7998 82 69.9998 82.1 70.1998 82.2C70.3998 82.2 70.4998 82.4 70.6998 82.4C70.7998 82.4 70.8998 82.4 70.8998 82.4H71.5998V82.5Z" fill="black" stroke="white" stroke-width="1.2"/>
<path id="Vector_27" d="M73.7002 47.3C72.8002 47.7 71.8002 47.3 71.4002 46.4C71.0002 45.5 71.4002 44.5 72.3002 44.1C73.2002 43.7 74.2002 44.1 74.6002 45C75.0002 45.9 74.6002 46.9 73.7002 47.3Z" fill="white"/>
<path id="Vector_28" fill-rule="evenodd" clip-rule="evenodd" d="M72.8002 82.4C73.1002 82.1 73.3002 81.6 73.1002 81.1C72.9002 80.7 72.5002 80.4 72.0002 80.4C71.4002 80.4 70.8002 80.4 70.3002 80.4C69.2002 80.4 68.3002 79.7 68.0002 78.6C68.0002 78.3 67.8002 77.9 67.7002 77.5C67.4002 76.4 66.6002 75.5 65.5002 75.1C64.4002 74.7 63.4002 75.5 62.3002 75.6C60.5002 75.8 56.7002 77.4 56.7002 77.4V89.3C56.7002 89.3 63.4002 89.6 66.1002 89.7C67.5002 89.7 68.7002 88.9 69.2002 87.6C70.1002 85.5 71.3002 83.8 72.9002 82.4H72.8002Z" fill="black" stroke="white" stroke-linecap="round" stroke-linejoin="round"/>
<path id="Vector_29" d="M114.5 89H108.5V106H114.5V89Z" fill="black" stroke="white"/>
<path id="Vector_30" d="M102.5 92H96.5V106H102.5V92Z" fill="black" stroke="white"/>
<path id="Vector_31" d="M126.5 87H120.5V106H126.5V87Z" fill="black" stroke="white"/>
<path id="Vector_32" d="M138.5 85H132.5V106H138.5V85Z" fill="black" stroke="white"/>
<path id="Vector_33" d="M152.9 53H144.6V105.3H152.9V53Z" fill="#FCBF00" stroke="white" stroke-width="1.2"/>
</g>
</svg>
