<svg width="21" height="19" viewBox="0 0 21 19" fill="none" xmlns="http://www.w3.org/2000/svg">
<path d="M9.5708 11.2565L13.1722 9.49902L9.5708 7.74352V11.2565Z" fill="#222222"/>
<path d="M18.0127 16.2085C16.17 17.9306 13.6288 19 10.8332 19C8.0375 19 5.49635 17.9306 3.65361 16.2085C1.81086 14.4864 0.666504 12.1116 0.666504 9.49902C0.666504 6.88639 1.81086 4.51164 3.65361 2.78955C5.49635 1.06746 8.0375 0 10.8332 0C16.4245 0 20.9998 4.27377 20.9998 9.49902C20.9998 12.1116 19.8555 14.4864 18.0127 16.2085ZM17.7014 7.95189C17.7014 6.33399 17.1082 5.02276 15.379 5.02276H6.47242C4.74117 5.02276 3.96494 6.33399 3.96494 7.95189V11.0481C3.96494 12.666 4.66754 13.9772 6.3988 13.9772H15.4527C17.1818 13.9772 17.7014 12.666 17.7014 11.0481V7.95189Z" fill="#222222"/>
</svg>
